<svg width="887" height="87" viewBox="0 0 887 87" fill="none" xmlns="http://www.w3.org/2000/svg">
<path d="M31.1 14.5C35.1 14.5 38.7 14.7333 41.9 15.2C45.1667 15.6667 48.5 16.6667 51.9 18.2C55.3 19.6667 58.1333 21.6667 60.4 24.2C62.6667 26.6667 64.5333 30.0667 66 34.4C67.4667 38.7333 68.2 43.8333 68.2 49.7C68.2 55.5667 67.4667 60.6667 66 65C64.5333 69.3333 62.6667 72.7667 60.4 75.3C58.1333 77.7667 55.3 79.7667 51.9 81.3C48.5 82.8333 45.1667 83.8333 41.9 84.3C38.7 84.7667 35.1 85 31.1 85H6.5V14.5H31.1ZM31.1 73.8C34.1 73.8 36.5667 73.7 38.5 73.5C40.5 73.3 42.6667 72.7333 45 71.8C47.3333 70.8667 49.1667 69.6 50.5 68C51.9 66.3333 53.0667 63.9667 54 60.9C54.9333 57.7667 55.4 54.0333 55.4 49.7C55.4 46.0333 55.1 42.8333 54.5 40.1C53.9 37.3667 53 35.1667 51.8 33.5C50.6 31.7667 49.3333 30.3667 48 29.3C46.6667 28.2333 44.9667 27.4667 42.9 27C40.8333 26.4667 38.9667 26.1333 37.3 26C35.6333 25.8 33.5667 25.7 31.1 25.7H19.4V73.8H31.1ZM193.863 26.7C192.329 28.0333 190.263 28.7 187.663 28.7C185.063 28.7 182.996 28.0333 181.463 26.7C179.929 25.3 179.163 23.4333 179.163 21.1C179.163 18.7667 179.929 16.9333 181.463 15.6C182.996 14.2 185.063 13.5 187.663 13.5C190.196 13.5 192.263 14.2 193.863 15.6C195.463 17 196.263 18.8333 196.263 21.1C196.263 23.4333 195.463 25.3 193.863 26.7ZM168.563 85V73.8H182.763V45.3L171.263 46V34.8L187.263 33.8C189.796 33.6667 191.729 34.2667 193.063 35.6C194.396 36.9333 195.063 38.8333 195.063 41.3V73.8H209.263V85H168.563ZM213.191 59.9C213.191 52.0333 215.625 45.7333 220.491 41C225.358 36.2 231.825 33.8 239.891 33.8C246.558 33.8 252.358 35.6333 257.291 39.3C262.291 42.9 265.025 48.1 265.491 54.9H252.591C252.125 51.7 250.758 49.2667 248.491 47.6C246.225 45.8667 243.358 45 239.891 45C235.425 45 231.991 46.3667 229.591 49.1C227.258 51.7667 226.091 55.3667 226.091 59.9C226.091 64.4333 227.258 68.0667 229.591 70.8C231.991 73.4667 235.425 74.8 239.891 74.8C243.358 74.8 246.225 73.9667 248.491 72.3C250.758 70.5667 252.125 68.1 252.591 64.9H265.491C265.025 71.7 262.291 76.9333 257.291 80.6C252.358 84.2 246.558 86 239.891 86C231.825 86 225.358 83.6333 220.491 78.9C215.625 74.1667 213.191 67.8333 213.191 59.9ZM295.816 26.7C294.282 28.0333 292.216 28.7 289.616 28.7C287.016 28.7 284.949 28.0333 283.416 26.7C281.882 25.3 281.116 23.4333 281.116 21.1C281.116 18.7667 281.882 16.9333 283.416 15.6C284.949 14.2 287.016 13.5 289.616 13.5C292.149 13.5 294.216 14.2 295.816 15.6C297.416 17 298.216 18.8333 298.216 21.1C298.216 23.4333 297.416 25.3 295.816 26.7ZM270.516 85V73.8H284.716V45.3L273.216 46V34.8L289.216 33.8C291.749 33.6667 293.682 34.2667 295.016 35.6C296.349 36.9333 297.016 38.8333 297.016 41.3V73.8H311.216V85H270.516ZM322.845 79C317.711 74.3333 315.145 67.9667 315.145 59.9C315.145 51.8333 317.711 45.4667 322.845 40.8C327.978 36.1333 334.611 33.8 342.745 33.8C350.811 33.8 357.411 36.1333 362.545 40.8C367.678 45.4667 370.245 51.8333 370.245 59.9C370.245 67.9667 367.678 74.3333 362.545 79C357.411 83.6667 350.811 86 342.745 86C334.611 86 327.978 83.6667 322.845 79ZM331.945 49C329.345 51.6667 328.045 55.3 328.045 59.9C328.045 64.5 329.345 68.1333 331.945 70.8C334.545 73.4667 338.145 74.8 342.745 74.8C347.345 74.8 350.945 73.4667 353.545 70.8C356.145 68.1333 357.445 64.5 357.445 59.9C357.445 55.3 356.145 51.6667 353.545 49C350.945 46.3333 347.345 45 342.745 45C338.145 45 334.545 46.3333 331.945 49ZM402.161 74.8C407.028 74.8 410.861 73.1667 413.661 69.9C416.528 66.5667 417.961 61.5667 417.961 54.9V34.8H430.761V85H417.961V77.9L420.261 70.2H416.961C415.894 74.9333 413.728 78.7667 410.461 81.7C407.261 84.5667 403.061 86 397.861 86C391.594 86 386.694 84.0667 383.161 80.2C379.694 76.2667 377.961 70.6667 377.961 63.4V34.8H390.861V61.4C390.861 66.2667 391.728 69.7333 393.461 71.8C395.194 73.8 398.094 74.8 402.161 74.8ZM485.559 71.5C485.559 81.1667 478.259 86 463.659 86C455.125 86 448.792 84.3333 444.659 81C440.592 77.6 438.559 72.8333 438.559 66.7H451.459C451.459 72.9667 455.625 76.1 463.959 76.1C469.759 76.1 472.659 74.5 472.659 71.3C472.659 69.6333 471.925 68.3667 470.459 67.5C468.992 66.6333 466.359 65.6 462.559 64.4C461.559 64.1333 460.792 63.9 460.259 63.7C453.659 61.5 449.325 59.7667 447.259 58.5C443.059 55.8333 440.925 52.2 440.859 47.6C440.859 43.2667 442.659 39.9 446.259 37.5C449.859 35.0333 454.892 33.8 461.359 33.8C469.025 33.8 474.692 35.5 478.359 38.9C482.025 42.2333 483.859 46.4333 483.859 51.5H470.959C470.959 46.3 467.725 43.7 461.259 43.7C456.259 43.7 453.759 45.1 453.759 47.9C453.759 49.4333 454.659 50.6667 456.459 51.6C458.259 52.5333 461.492 53.7667 466.159 55.3C472.825 57.5 477.125 59.1667 479.059 60.3C483.392 62.9667 485.559 66.7 485.559 71.5Z" fill="#181818"/>
<path d="M588.346 23C595.908 23 602.357 26.041 607.691 32.1229C613.084 38.1457 615.781 45.4381 615.781 54C615.781 62.5619 613.084 69.8838 607.691 75.9657C602.357 81.9886 595.908 85 588.346 85C583.188 85 578.967 83.819 575.684 81.4571C573.926 80.2171 572.695 78.859 571.991 77.3829C571.288 75.8476 571.171 74.7257 571.64 74.0171C571.933 73.6038 572.49 73.0429 573.31 72.3343C574.19 71.6257 574.893 71.0352 575.421 70.5629C576.007 70.0314 576.476 69.3524 576.827 68.5257C577.179 67.64 576.974 66.7838 576.212 65.9571C575.626 65.1895 574.453 64.54 572.695 64.0086C570.995 63.4181 569.295 62.9162 567.595 62.5029C565.953 62.0895 564.459 61.2038 563.11 59.8457C561.762 58.4286 561.059 56.5686 561 54.2657C561 46.0581 563.55 38.7952 568.65 32.4771C573.809 26.159 580.374 23 588.346 23ZM596.963 80.04C600.305 78.3276 602.532 74.6371 603.646 68.9686C604.76 63.3 604.438 57.041 602.679 50.1914C600.744 42.8695 597.696 36.9943 593.534 32.5657C589.431 28.0781 585.386 26.3362 581.4 27.34C577.824 28.2848 575.274 31.2962 573.75 36.3743C572.226 41.4524 572.05 47.3276 573.222 54C573.281 54.4724 573.515 55.5648 573.926 57.2771C574.512 58.6352 575.977 59.4619 578.322 59.7571C580.667 59.9933 582.133 60.7019 582.719 61.8829C583.129 62.7095 583.07 63.8905 582.543 65.4257C582.015 66.9609 581.546 68.3486 581.136 69.5886C580.784 70.8286 581.136 72.4229 582.191 74.3714C582.543 74.8438 583.1 75.4638 583.862 76.2314C584.331 76.6448 584.946 77.1762 585.708 77.8257C586.529 78.4162 587.965 79.1248 590.017 79.9514C592.069 80.7781 593.857 81.0143 595.381 80.66C596.084 80.4238 596.612 80.2171 596.963 80.04Z" fill="#181818"/>
<path d="M646.566 23C654.128 23 660.576 26.041 665.91 32.1229C671.303 38.1457 674 45.4381 674 54C674 62.5619 671.303 69.8838 665.91 75.9657C660.576 81.9886 654.128 85 646.566 85C641.407 85 637.187 83.819 633.904 81.4571C632.145 80.2171 630.914 78.859 630.211 77.3829C629.507 75.8476 629.39 74.7257 629.859 74.0171C630.152 73.6038 630.709 73.0429 631.53 72.3343C632.409 71.6257 633.112 71.0352 633.64 70.5629C634.226 70.0314 634.695 69.3524 635.047 68.5257C635.399 67.64 635.193 66.7838 634.431 65.9571C633.845 65.1895 632.673 64.54 630.914 64.0086C629.214 63.4181 627.514 62.9162 625.814 62.5029C624.173 62.0895 622.678 61.2038 621.33 59.8457C619.982 58.4286 619.278 56.5686 619.219 54.2657C619.219 46.0581 621.769 38.7952 626.869 32.4771C632.028 26.159 638.593 23 646.566 23ZM655.183 80.04C658.524 78.3276 660.752 74.6371 661.866 68.9686C662.979 63.3 662.657 57.041 660.898 50.1914C658.964 42.8695 655.916 36.9943 651.754 32.5657C647.65 28.0781 643.605 26.3362 639.619 27.34C636.043 28.2848 633.493 31.2962 631.969 36.3743C630.445 41.4524 630.269 47.3276 631.442 54C631.5 54.4724 631.735 55.5648 632.145 57.2771C632.731 58.6352 634.197 59.4619 636.542 59.7571C638.887 59.9933 640.352 60.7019 640.938 61.8829C641.349 62.7095 641.29 63.8905 640.762 65.4257C640.235 66.9609 639.766 68.3486 639.355 69.5886C639.004 70.8286 639.355 72.4229 640.411 74.3714C640.762 74.8438 641.319 75.4638 642.081 76.2314C642.55 76.6448 643.166 77.1762 643.928 77.8257C644.749 78.4162 646.185 79.1248 648.236 79.9514C650.288 80.7781 652.076 81.0143 653.6 80.66C654.304 80.4238 654.831 80.2171 655.183 80.04Z" fill="#181818"/>
<path d="M84.2929 57.5429C82.5921 60.3771 82.6801 63.241 84.5569 66.1343C86.4923 69.0276 90.2458 70.4743 95.8175 70.4743C99.6884 70.4743 103.207 70.1495 106.374 69.5C109.6 68.8505 111.858 68.201 113.148 67.5514L114.996 66.5771C114.996 72.4819 113.06 77.0286 109.19 80.2171C105.377 83.4057 100.92 85 95.8175 85C93.6475 85 91.6827 84.9409 89.9233 84.8229C88.2224 84.6457 86.3163 84.2914 84.205 83.76C82.0936 83.1695 80.3341 82.3724 78.9265 81.3686C77.5776 80.3648 76.4046 78.9476 75.4076 77.1171C74.4692 75.2276 74 73.0133 74 70.4743C74 67.4629 74.5278 64.7171 75.5835 62.2371C76.6979 59.7571 77.9002 57.8971 79.1905 56.6571C80.4807 55.4171 81.6537 54.1771 82.7094 52.9371C83.8238 51.6381 84.3809 50.5162 84.3809 49.5714C84.3809 48.981 83.8824 48.2429 82.8854 47.3571C81.947 46.4714 80.8913 45.6152 79.7183 44.7886C78.5453 43.9029 77.4603 42.7219 76.4633 41.2457C75.5249 39.7105 75.0557 38.1162 75.0557 36.4629C75.0557 32.6838 76.4046 29.4952 79.1025 26.8971C81.8004 24.299 85.4073 23 89.9233 23C93.3249 23 97.0785 23.5019 101.184 24.5057C105.348 25.4505 108.28 25.9229 109.981 25.9229C111.682 25.9229 113.178 25.6867 114.468 25.2143C115.758 24.6829 116.609 24.181 117.019 23.7086L117.635 23C117.635 26.1886 116.198 29.3476 113.324 32.4771C110.509 35.5476 106.492 37.0829 101.272 37.0829C98.9846 37.0829 96.8146 36.7286 94.7618 36.02C92.7678 35.2524 91.1842 34.4552 90.0112 33.6286C88.8969 32.7429 87.8119 31.9457 86.7562 31.2371C85.7592 30.4695 84.9967 30.0857 84.4689 30.0857C84.0583 30.0857 83.6771 30.2629 83.3252 30.6171C81.7417 32.2114 82.2989 34.9867 84.9967 38.9429C86.1697 40.5371 87.8412 41.8067 90.0112 42.7514C92.2399 43.6371 94.2633 44.1981 96.0814 44.4343C97.9582 44.6705 99.6004 45.2314 101.008 46.1171C102.474 46.9438 103.207 48.1543 103.207 49.7486C102.797 49.7486 102.269 49.7781 101.624 49.8371C100.979 49.8962 99.747 50.1029 97.9289 50.4571C96.1108 50.7524 94.4393 51.1657 92.9144 51.6971C91.3895 52.1695 89.7766 52.9371 88.0758 54C86.4336 55.0038 85.1727 56.1848 84.2929 57.5429Z" fill="#181818"/>
<path d="M142.822 70.4743C146.693 70.4743 150.211 70.1495 153.379 69.5C156.604 68.8505 158.833 68.201 160.065 67.5514L162 66.5771C162 72.4819 160.065 77.0286 156.194 80.2171C152.382 83.4057 147.924 85 142.822 85C140.652 85 138.687 84.9409 136.927 84.8229C135.227 84.6457 133.321 84.2914 131.209 83.76C129.098 83.1695 127.338 82.3724 125.931 81.3686C124.582 80.3648 123.409 78.9476 122.412 77.1171C121.473 75.2276 121.004 73.0133 121.004 70.4743C121.004 67.4629 121.532 64.7171 122.588 62.2371C123.702 59.7571 124.904 57.8971 126.195 56.6571C127.485 55.4171 128.658 54.1771 129.714 52.9371C130.828 51.6381 131.385 50.5162 131.385 49.5714C131.385 48.8629 131.063 48.2133 130.417 47.6229C129.772 46.9733 128.98 46.3238 128.042 45.6743C127.162 44.9657 126.253 44.139 125.315 43.1943C124.435 42.1905 123.673 40.8029 123.028 39.0314C122.382 37.201 122.06 35.0752 122.06 32.6543C122.06 31.1781 122.294 29.6429 122.764 28.0486C123.291 26.4543 123.819 25.2143 124.347 24.3286L125.051 23H135.256C132.969 26.6019 131.854 30.1743 131.913 33.7171C131.972 37.201 133.027 40.36 135.08 43.1943C136.312 44.9067 136.927 46.5305 136.927 48.0657C136.927 49.601 136.576 50.9 135.872 51.9629C135.168 53.0257 133.966 54.5019 132.265 56.3914C131.15 57.5724 130.476 58.96 130.241 60.5543C130.065 62.1486 130.3 63.6838 130.945 65.16C131.649 66.6362 133.027 67.9057 135.08 68.9686C137.133 69.9724 139.713 70.4743 142.822 70.4743Z" fill="#181818"/>
<path d="M543.4 23.2C540.733 23.2 538.833 23.8667 537.7 25.2C536.567 26.4667 536 28.6 536 31.6V35.3H550.6V46.5H536V74.3H550.6V85.5H513V74.3H523.2V46.5H513V35.3H523.2V31.2C523.2 18.4 530.4 12 544.8 12H553.4V23.2H543.4Z" fill="#181818"/>
<path d="M737.59 85.5H724.69V80.7L727.09 73.1H723.69C720.69 82.0333 714.023 86.5 703.69 86.5C696.69 86.5 691.157 84.0333 687.09 79.1C683.09 74.1667 681.09 67.9333 681.09 60.4C681.09 52.8667 683.09 46.6333 687.09 41.7C691.157 36.7667 696.69 34.3 703.69 34.3C714.023 34.3 720.69 38.8 723.69 47.8H727.09L724.69 40.1V12H737.59V85.5ZM720.59 71.6C723.323 69.1333 724.69 65.4 724.69 60.4C724.69 55.4 723.323 51.6667 720.59 49.2C717.857 46.7333 714.057 45.5 709.19 45.5C699.057 45.5 693.99 50.4667 693.99 60.4C693.99 70.3333 699.057 75.3 709.19 75.3C714.057 75.3 717.857 74.0667 720.59 71.6Z" fill="#181818"/>
</svg>
