<svg width="293" height="288" viewBox="0 0 293 288" fill="none" xmlns="http://www.w3.org/2000/svg">
<path d="M171.34 85.62C169.74 85.62 168.6 86.02 167.92 86.82C167.24 87.58 166.9 88.86 166.9 90.66V92.88H175.66V99.6H166.9V116.28H175.66V123H153.1V116.28H159.22V99.6H153.1V92.88H159.22V90.42C159.22 82.74 163.54 78.9 172.18 78.9H177.34V85.62H171.34ZM184.394 119.4C181.314 116.6 179.774 112.78 179.774 107.94C179.774 103.1 181.314 99.28 184.394 96.48C187.474 93.68 191.454 92.28 196.334 92.28C201.174 92.28 205.134 93.68 208.214 96.48C211.294 99.28 212.834 103.1 212.834 107.94C212.834 112.78 211.294 116.6 208.214 119.4C205.134 122.2 201.174 123.6 196.334 123.6C191.454 123.6 187.474 122.2 184.394 119.4ZM189.854 101.4C188.294 103 187.514 105.18 187.514 107.94C187.514 110.7 188.294 112.88 189.854 114.48C191.414 116.08 193.574 116.88 196.334 116.88C199.094 116.88 201.254 116.08 202.814 114.48C204.374 112.88 205.154 110.7 205.154 107.94C205.154 105.18 204.374 103 202.814 101.4C201.254 99.8 199.094 99 196.334 99C193.574 99 191.414 99.8 189.854 101.4ZM218.064 123V97.02C218.064 95.5 218.464 94.34 219.264 93.54C220.104 92.74 221.284 92.36 222.804 92.4L241.344 92.88V99.6L225.804 99.18V123H218.064Z" fill="#181818"/>
<path d="M28.2 164.88H36.84L23.34 193.8V202.74C23.34 205.82 21.76 207.3 18.6 207.18L5.1 206.7V199.98L15.66 200.34V193.8L2.1 164.88H10.74L18.48 184.2V187.98H20.52V184.2L28.2 164.88ZM42.3005 191.4C39.2205 188.6 37.6805 184.78 37.6805 179.94C37.6805 175.1 39.2205 171.28 42.3005 168.48C45.3805 165.68 49.3605 164.28 54.2405 164.28C59.0805 164.28 63.0405 165.68 66.1205 168.48C69.2005 171.28 70.7405 175.1 70.7405 179.94C70.7405 184.78 69.2005 188.6 66.1205 191.4C63.0405 194.2 59.0805 195.6 54.2405 195.6C49.3605 195.6 45.3805 194.2 42.3005 191.4ZM47.7605 173.4C46.2005 175 45.4205 177.18 45.4205 179.94C45.4205 182.7 46.2005 184.88 47.7605 186.48C49.3205 188.08 51.4805 188.88 54.2405 188.88C57.0005 188.88 59.1605 188.08 60.7205 186.48C62.2805 184.88 63.0605 182.7 63.0605 179.94C63.0605 177.18 62.2805 175 60.7205 173.4C59.1605 171.8 57.0005 171 54.2405 171C51.4805 171 49.3205 171.8 47.7605 173.4ZM89.8903 188.88C92.8103 188.88 95.1103 187.9 96.7903 185.94C98.5103 183.94 99.3703 180.94 99.3703 176.94V164.88H107.05V195H99.3703V190.74L100.75 186.12H98.7703C98.1303 188.96 96.8303 191.26 94.8703 193.02C92.9503 194.74 90.4303 195.6 87.3103 195.6C83.5503 195.6 80.6103 194.44 78.4903 192.12C76.4103 189.76 75.3703 186.4 75.3703 182.04V164.88H83.1103V180.84C83.1103 183.76 83.6303 185.84 84.6703 187.08C85.7103 188.28 87.4503 188.88 89.8903 188.88ZM113.119 195V169.02C113.119 167.5 113.519 166.34 114.319 165.54C115.159 164.74 116.339 164.36 117.859 164.4L136.399 164.88V171.6L120.859 171.18V195H113.119Z" fill="#181818"/>
<path d="M34.32 263.4C31.24 260.6 29.7 256.78 29.7 251.94C29.7 247.1 31.24 243.28 34.32 240.48C37.4 237.68 41.38 236.28 46.26 236.28C51.1 236.28 55.06 237.68 58.14 240.48C61.22 243.28 62.76 247.1 62.76 251.94C62.76 256.78 61.22 260.6 58.14 263.4C55.06 266.2 51.1 267.6 46.26 267.6C41.38 267.6 37.4 266.2 34.32 263.4ZM39.78 245.4C38.22 247 37.44 249.18 37.44 251.94C37.44 254.7 38.22 256.88 39.78 258.48C41.34 260.08 43.5 260.88 46.26 260.88C49.02 260.88 51.18 260.08 52.74 258.48C54.3 256.88 55.08 254.7 55.08 251.94C55.08 249.18 54.3 247 52.74 245.4C51.18 243.8 49.02 243 46.26 243C43.5 243 41.34 243.8 39.78 245.4ZM65.3695 267V260.28H73.7695V229.2L66.9895 229.62V222.9L76.7095 222.42C78.2695 222.34 79.4495 222.7 80.2495 223.5C81.0895 224.3 81.5095 225.5 81.5095 227.1V260.28H89.8495V267H65.3695ZM108.864 232.02C107.944 232.82 106.704 233.22 105.144 233.22C103.584 233.22 102.344 232.82 101.424 232.02C100.504 231.18 100.044 230.06 100.044 228.66C100.044 227.26 100.504 226.16 101.424 225.36C102.344 224.52 103.584 224.1 105.144 224.1C106.664 224.1 107.904 224.52 108.864 225.36C109.824 226.2 110.304 227.3 110.304 228.66C110.304 230.06 109.824 231.18 108.864 232.02ZM93.6844 267V260.28H102.204V243.18L95.3044 243.6V236.88L104.904 236.28C106.424 236.2 107.584 236.56 108.384 237.36C109.184 238.16 109.584 239.3 109.584 240.78V260.28H118.104V267H93.6844ZM154.362 267H146.622V264.12L148.062 259.56H146.022C144.222 264.92 140.222 267.6 134.022 267.6C129.822 267.6 126.502 266.12 124.062 263.16C121.662 260.2 120.462 256.46 120.462 251.94C120.462 247.42 121.662 243.68 124.062 240.72C126.502 237.76 129.822 236.28 134.022 236.28C140.222 236.28 144.222 238.98 146.022 244.38H148.062L146.622 239.76V222.9H154.362V267ZM144.162 258.66C145.802 257.18 146.622 254.94 146.622 251.94C146.622 248.94 145.802 246.7 144.162 245.22C142.522 243.74 140.242 243 137.322 243C131.242 243 128.202 245.98 128.202 251.94C128.202 257.9 131.242 260.88 137.322 260.88C140.242 260.88 142.522 260.14 144.162 258.66ZM159.837 258.72C159.837 256.12 160.697 254.06 162.417 252.54C164.177 251.02 167.057 250.02 171.057 249.54L181.497 248.28C181.377 244.52 179.057 242.64 174.537 242.64C172.417 242.64 170.717 243.12 169.437 244.08C168.197 245 167.577 246.4 167.577 248.28H160.257C160.257 244.72 161.577 241.84 164.217 239.64C166.857 237.4 170.297 236.28 174.537 236.28C178.897 236.28 182.437 237.48 185.157 239.88C187.877 242.24 189.237 245.64 189.237 250.08V260.28H193.617V267H187.497C186.177 267 185.157 266.64 184.437 265.92C183.757 265.2 183.417 264.2 183.417 262.92V261.9L184.617 258.48H182.577C181.137 264.56 177.097 267.6 170.457 267.6C168.297 267.6 166.457 267.3 164.937 266.7C163.457 266.1 162.377 265.3 161.697 264.3C161.017 263.3 160.537 262.36 160.257 261.48C159.977 260.56 159.837 259.64 159.837 258.72ZM167.577 257.4C167.577 258.56 167.957 259.44 168.717 260.04C169.517 260.6 170.557 260.88 171.837 260.88C174.757 260.88 177.097 260.16 178.857 258.72C180.617 257.24 181.497 255.32 181.497 252.96L172.437 254.1C170.717 254.3 169.477 254.64 168.717 255.12C167.957 255.56 167.577 256.32 167.577 257.4ZM216.919 236.88H225.559L212.059 265.8V274.74C212.059 277.82 210.479 279.3 207.319 279.18L193.819 278.7V271.98L204.379 272.34V265.8L190.819 236.88H199.459L207.199 256.2V259.98H209.239V256.2L216.919 236.88ZM254.409 258.9C254.409 264.7 250.029 267.6 241.269 267.6C236.149 267.6 232.349 266.6 229.869 264.6C227.429 262.56 226.209 259.7 226.209 256.02H233.949C233.949 259.78 236.449 261.66 241.449 261.66C244.929 261.66 246.669 260.7 246.669 258.78C246.669 257.78 246.229 257.02 245.349 256.5C244.469 255.98 242.889 255.36 240.609 254.64C240.009 254.48 239.549 254.34 239.229 254.22C235.269 252.9 232.669 251.86 231.429 251.1C228.909 249.5 227.629 247.32 227.589 244.56C227.589 241.96 228.669 239.94 230.829 238.5C232.989 237.02 236.009 236.28 239.889 236.28C244.489 236.28 247.889 237.3 250.089 239.34C252.289 241.34 253.389 243.86 253.389 246.9H245.649C245.649 243.78 243.709 242.22 239.829 242.22C236.829 242.22 235.329 243.06 235.329 244.74C235.329 245.66 235.869 246.4 236.949 246.96C238.029 247.52 239.969 248.26 242.769 249.18C246.769 250.5 249.349 251.5 250.509 252.18C253.109 253.78 254.409 256.02 254.409 258.9Z" fill="#181818"/>
<path d="M18.66 8.7C21.06 8.7 23.22 8.84 25.14 9.12C27.1 9.4 29.1 10 31.14 10.92C33.18 11.8 34.88 13 36.24 14.52C37.6 16 38.72 18.04 39.6 20.64C40.48 23.24 40.92 26.3 40.92 29.82C40.92 33.34 40.48 36.4 39.6 39C38.72 41.6 37.6 43.66 36.24 45.18C34.88 46.66 33.18 47.86 31.14 48.78C29.1 49.7 27.1 50.3 25.14 50.58C23.22 50.86 21.06 51 18.66 51H3.9V8.7H18.66ZM18.66 44.28C20.46 44.28 21.94 44.22 23.1 44.1C24.3 43.98 25.6 43.64 27 43.08C28.4 42.52 29.5 41.76 30.3 40.8C31.14 39.8 31.84 38.38 32.4 36.54C32.96 34.66 33.24 32.42 33.24 29.82C33.24 27.62 33.06 25.7 32.7 24.06C32.34 22.42 31.8 21.1 31.08 20.1C30.36 19.06 29.6 18.22 28.8 17.58C28 16.94 26.98 16.48 25.74 16.2C24.5 15.88 23.38 15.68 22.38 15.6C21.38 15.48 20.14 15.42 18.66 15.42H11.64V44.28H18.66ZM116.318 16.02C115.398 16.82 114.158 17.22 112.598 17.22C111.038 17.22 109.798 16.82 108.878 16.02C107.958 15.18 107.498 14.06 107.498 12.66C107.498 11.26 107.958 10.16 108.878 9.36C109.798 8.52 111.038 8.1 112.598 8.1C114.118 8.1 115.358 8.52 116.318 9.36C117.278 10.2 117.758 11.3 117.758 12.66C117.758 14.06 117.278 15.18 116.318 16.02ZM101.138 51V44.28H109.658V27.18L102.758 27.6V20.88L112.358 20.28C113.878 20.2 115.038 20.56 115.838 21.36C116.638 22.16 117.038 23.3 117.038 24.78V44.28H125.558V51H101.138ZM127.915 35.94C127.915 31.22 129.375 27.44 132.295 24.6C135.215 21.72 139.095 20.28 143.935 20.28C147.935 20.28 151.415 21.38 154.375 23.58C157.375 25.74 159.015 28.86 159.295 32.94H151.555C151.275 31.02 150.455 29.56 149.095 28.56C147.735 27.52 146.015 27 143.935 27C141.255 27 139.195 27.82 137.755 29.46C136.355 31.06 135.655 33.22 135.655 35.94C135.655 38.66 136.355 40.84 137.755 42.48C139.195 44.08 141.255 44.88 143.935 44.88C146.015 44.88 147.735 44.38 149.095 43.38C150.455 42.34 151.275 40.86 151.555 38.94H159.295C159.015 43.02 157.375 46.16 154.375 48.36C151.415 50.52 147.935 51.6 143.935 51.6C139.095 51.6 135.215 50.18 132.295 47.34C129.375 44.5 127.915 40.7 127.915 35.94ZM177.489 16.02C176.569 16.82 175.329 17.22 173.769 17.22C172.209 17.22 170.969 16.82 170.049 16.02C169.129 15.18 168.669 14.06 168.669 12.66C168.669 11.26 169.129 10.16 170.049 9.36C170.969 8.52 172.209 8.1 173.769 8.1C175.289 8.1 176.529 8.52 177.489 9.36C178.449 10.2 178.929 11.3 178.929 12.66C178.929 14.06 178.449 15.18 177.489 16.02ZM162.309 51V44.28H170.829V27.18L163.929 27.6V20.88L173.529 20.28C175.049 20.2 176.209 20.56 177.009 21.36C177.809 22.16 178.209 23.3 178.209 24.78V44.28H186.729V51H162.309ZM193.707 47.4C190.627 44.6 189.087 40.78 189.087 35.94C189.087 31.1 190.627 27.28 193.707 24.48C196.787 21.68 200.767 20.28 205.647 20.28C210.487 20.28 214.447 21.68 217.527 24.48C220.607 27.28 222.147 31.1 222.147 35.94C222.147 40.78 220.607 44.6 217.527 47.4C214.447 50.2 210.487 51.6 205.647 51.6C200.767 51.6 196.787 50.2 193.707 47.4ZM199.167 29.4C197.607 31 196.827 33.18 196.827 35.94C196.827 38.7 197.607 40.88 199.167 42.48C200.727 44.08 202.887 44.88 205.647 44.88C208.407 44.88 210.567 44.08 212.127 42.48C213.687 40.88 214.467 38.7 214.467 35.94C214.467 33.18 213.687 31 212.127 29.4C210.567 27.8 208.407 27 205.647 27C202.887 27 200.727 27.8 199.167 29.4ZM241.297 44.88C244.217 44.88 246.517 43.9 248.197 41.94C249.917 39.94 250.777 36.94 250.777 32.94V20.88H258.457V51H250.777V46.74L252.157 42.12H250.177C249.537 44.96 248.237 47.26 246.277 49.02C244.357 50.74 241.837 51.6 238.717 51.6C234.957 51.6 232.017 50.44 229.897 48.12C227.817 45.76 226.777 42.4 226.777 38.04V20.88H234.517V36.84C234.517 39.76 235.037 41.84 236.077 43.08C237.117 44.28 238.857 44.88 241.297 44.88ZM291.335 42.9C291.335 48.7 286.955 51.6 278.195 51.6C273.075 51.6 269.275 50.6 266.795 48.6C264.355 46.56 263.135 43.7 263.135 40.02H270.875C270.875 43.78 273.375 45.66 278.375 45.66C281.855 45.66 283.595 44.7 283.595 42.78C283.595 41.78 283.155 41.02 282.275 40.5C281.395 39.98 279.815 39.36 277.535 38.64C276.935 38.48 276.475 38.34 276.155 38.22C272.195 36.9 269.595 35.86 268.355 35.1C265.835 33.5 264.555 31.32 264.515 28.56C264.515 25.96 265.595 23.94 267.755 22.5C269.915 21.02 272.935 20.28 276.815 20.28C281.415 20.28 284.815 21.3 287.015 23.34C289.215 25.34 290.315 27.86 290.315 30.9H282.575C282.575 27.78 280.635 26.22 276.755 26.22C273.755 26.22 272.255 27.06 272.255 28.74C272.255 29.66 272.795 30.4 273.875 30.96C274.955 31.52 276.895 32.26 279.695 33.18C283.695 34.5 286.275 35.5 287.435 36.18C290.035 37.78 291.335 40.02 291.335 42.9Z" fill="#181818"/>
<path d="M17.9958 85.6148C16.4172 85.6148 15.2925 86.0085 14.6216 86.796C13.9507 87.5441 13.6152 88.804 13.6152 90.5758V92.7611H22.2579V99.3758H13.6152V115.795H22.2579V122.409H0V115.795H6.03805V99.3758H0V92.7611H6.03805V90.3396C6.03805 82.7799 10.3002 79 18.8245 79H23.9154V85.6148H17.9958Z" fill="#181818"/>
<path d="M120.446 122.409H112.81V119.574L114.23 115.086H112.218C110.442 120.362 106.495 123 100.378 123C96.2347 123 92.9591 121.543 90.5518 118.63C88.1839 115.716 87 112.034 87 107.585C87 103.136 88.1839 99.4546 90.5518 96.5409C92.9591 93.6273 96.2347 92.1705 100.378 92.1705C106.495 92.1705 110.442 94.8282 112.218 100.144H114.23L112.81 95.596V79H120.446V122.409ZM110.383 114.2C112.001 112.743 112.81 110.538 112.81 107.585C112.81 104.632 112.001 102.427 110.383 100.97C108.765 99.5136 106.515 98.7852 103.634 98.7852C97.6357 98.7852 94.6364 101.719 94.6364 107.585C94.6364 113.452 97.6357 116.385 103.634 116.385C106.515 116.385 108.765 115.657 110.383 114.2Z" fill="#181818"/>
<path d="M41.0362 92C44.9175 92 48.2272 93.5205 50.9653 96.5614C53.7334 99.5729 55.1175 103.219 55.1175 107.5C55.1175 111.781 53.7334 115.442 50.9653 118.483C48.2272 121.494 44.9175 123 41.0362 123C38.3884 123 36.222 122.41 34.5371 121.229C33.6345 120.609 33.0026 119.93 32.6415 119.191C32.2805 118.424 32.2203 117.863 32.461 117.509C32.6115 117.302 32.8973 117.021 33.3185 116.667C33.7699 116.313 34.1309 116.018 34.4017 115.781C34.7026 115.516 34.9433 115.176 35.1238 114.763C35.3044 114.32 35.199 113.892 34.8079 113.479C34.507 113.095 33.9052 112.77 33.0026 112.504C32.13 112.209 31.2575 111.958 30.3849 111.751C29.5425 111.545 28.7752 111.102 28.0832 110.423C27.3911 109.714 27.0301 108.784 27 107.633C27 103.529 28.3088 99.8976 30.9265 96.7386C33.5743 93.5795 36.9442 92 41.0362 92ZM45.4591 120.52C47.1742 119.664 48.3175 117.819 48.8892 114.984C49.4609 112.15 49.2954 109.02 48.3927 105.596C47.3998 101.935 45.8352 98.9971 43.699 96.7829C41.5928 94.539 39.5167 93.6681 37.4707 94.17C35.6353 94.6424 34.3265 96.1481 33.5442 98.6871C32.7619 101.226 32.6716 104.164 33.2734 107.5C33.3035 107.736 33.4238 108.282 33.6345 109.139C33.9353 109.818 34.6875 110.231 35.8911 110.379C37.0946 110.497 37.8468 110.851 38.1477 111.441C38.3583 111.855 38.3282 112.445 38.0574 113.213C37.7866 113.98 37.5459 114.674 37.3353 115.294C37.1548 115.914 37.3353 116.711 37.8769 117.686C38.0574 117.922 38.3433 118.232 38.7344 118.616C38.9751 118.822 39.291 119.088 39.6822 119.413C40.1034 119.708 40.8406 120.062 41.8937 120.476C42.9468 120.889 43.8645 121.007 44.6467 120.83C45.0078 120.712 45.2786 120.609 45.4591 120.52Z" fill="#181818"/>
<path d="M70.9187 92C74.8001 92 78.1098 93.5205 80.8478 96.5614C83.6159 99.5729 85 103.219 85 107.5C85 111.781 83.6159 115.442 80.8478 118.483C78.1098 121.494 74.8001 123 70.9187 123C68.2709 123 66.1046 122.41 64.4196 121.229C63.517 120.609 62.8852 119.93 62.5241 119.191C62.163 118.424 62.1029 117.863 62.3436 117.509C62.494 117.302 62.7798 117.021 63.2011 116.667C63.6524 116.313 64.0135 116.018 64.2843 115.781C64.5851 115.516 64.8258 115.176 65.0064 114.763C65.1869 114.32 65.0816 113.892 64.6904 113.479C64.3896 113.095 63.7878 112.77 62.8852 112.504C62.0126 112.209 61.14 111.958 60.2675 111.751C59.425 111.545 58.6578 111.102 57.9657 110.423C57.2737 109.714 56.9126 108.784 56.8825 107.633C56.8825 103.529 58.1914 99.8976 60.8091 96.7386C63.4568 93.5795 66.8267 92 70.9187 92ZM75.3417 120.52C77.0567 119.664 78.2001 117.819 78.7717 114.984C79.3434 112.15 79.1779 109.02 78.2753 105.596C77.2824 101.935 75.7178 98.9971 73.5815 96.7829C71.4753 94.539 69.3993 93.6681 67.3533 94.17C65.5179 94.6424 64.209 96.1481 63.4267 98.6871C62.6444 101.226 62.5542 104.164 63.1559 107.5C63.186 107.736 63.3064 108.282 63.517 109.139C63.8179 109.818 64.5701 110.231 65.7736 110.379C66.9771 110.497 67.7294 110.851 68.0302 111.441C68.2409 111.855 68.2108 112.445 67.94 113.213C67.6692 113.98 67.4285 114.674 67.2179 115.294C67.0373 115.914 67.2179 116.711 67.7594 117.686C67.94 117.922 68.2258 118.232 68.617 118.616C68.8577 118.822 69.1736 119.088 69.5647 119.413C69.986 119.708 70.7231 120.062 71.7762 120.476C72.8293 120.889 73.747 121.007 74.5293 120.83C74.8904 120.712 75.1612 120.609 75.3417 120.52Z" fill="#181818"/>
<path d="M53.4974 37.7143C52.589 39.0857 52.636 40.4714 53.6383 41.8714C54.672 43.2714 56.6768 43.9714 59.6525 43.9714C61.7199 43.9714 63.5994 43.8143 65.2909 43.5C67.0137 43.1857 68.2197 42.8714 68.9088 42.5571L69.8955 42.0857C69.8955 44.9429 68.8618 47.1429 66.7944 48.6857C64.7584 50.2286 62.3777 51 59.6525 51C58.4936 51 57.4442 50.9714 56.5045 50.9143C55.5961 50.8286 54.578 50.6571 53.4504 50.4C52.3227 50.1143 51.383 49.7286 50.6312 49.2429C49.9108 48.7571 49.2843 48.0714 48.7518 47.1857C48.2506 46.2714 48 45.2 48 43.9714C48 42.5143 48.2819 41.1857 48.8457 39.9857C49.4409 38.7857 50.083 37.8857 50.7722 37.2857C51.4613 36.6857 52.0878 36.0857 52.6516 35.4857C53.2468 34.8571 53.5444 34.3143 53.5444 33.8571C53.5444 33.5714 53.2781 33.2143 52.7456 32.7857C52.2444 32.3571 51.6806 31.9429 51.0541 31.5429C50.4276 31.1143 49.8481 30.5429 49.3156 29.8286C48.8144 29.0857 48.5638 28.3143 48.5638 27.5143C48.5638 25.6857 49.2843 24.1429 50.7252 22.8857C52.1661 21.6286 54.0925 21 56.5045 21C58.3213 21 60.326 21.2429 62.5187 21.7286C64.7427 22.1857 66.3089 22.4143 67.2173 22.4143C68.1257 22.4143 68.9245 22.3 69.6136 22.0714C70.3027 21.8143 70.7569 21.5714 70.9762 21.3429L71.3051 21C71.3051 22.5429 70.5376 24.0714 69.0028 25.5857C67.4992 27.0714 65.3535 27.8143 62.5657 27.8143C61.344 27.8143 60.1851 27.6429 59.0887 27.3C58.0237 26.9286 57.1779 26.5429 56.5515 26.1429C55.9563 25.7143 55.3768 25.3286 54.813 24.9857C54.2805 24.6143 53.8733 24.4286 53.5913 24.4286C53.3721 24.4286 53.1685 24.5143 52.9805 24.6857C52.1348 25.4571 52.4324 26.8 53.8733 28.7143C54.4997 29.4857 55.3925 30.1 56.5515 30.5571C57.7418 30.9857 58.8225 31.2571 59.7935 31.3714C60.7959 31.4857 61.6729 31.7571 62.4247 32.1857C63.2078 32.5857 63.5994 33.1714 63.5994 33.9429C63.3801 33.9429 63.0982 33.9571 62.7536 33.9857C62.4091 34.0143 61.7513 34.1143 60.7802 34.2857C59.8092 34.4286 58.9164 34.6286 58.102 34.8857C57.2876 35.1143 56.4262 35.4857 55.5178 36C54.6407 36.4857 53.9672 37.0571 53.4974 37.7143Z" fill="#181818"/>
<path d="M84.757 43.9714C86.8244 43.9714 88.7039 43.8143 90.3954 43.5C92.1182 43.1857 93.3085 42.8714 93.9663 42.5571L95 42.0857C95 44.9429 93.9663 47.1429 91.8989 48.6857C89.8629 50.2286 87.4822 51 84.757 51C83.5981 51 82.5487 50.9714 81.609 50.9143C80.7006 50.8286 79.6825 50.6571 78.5549 50.4C77.4272 50.1143 76.4875 49.7286 75.7357 49.2429C75.0153 48.7571 74.3888 48.0714 73.8563 47.1857C73.3551 46.2714 73.1045 45.2 73.1045 43.9714C73.1045 42.5143 73.3864 41.1857 73.9502 39.9857C74.5454 38.7857 75.1875 37.8857 75.8767 37.2857C76.5658 36.6857 77.1923 36.0857 77.7561 35.4857C78.3513 34.8571 78.6489 34.3143 78.6489 33.8571C78.6489 33.5143 78.4766 33.2 78.132 32.9143C77.7874 32.6 77.3646 32.2857 76.8634 31.9714C76.3935 31.6286 75.908 31.2286 75.4068 30.7714C74.937 30.2857 74.5297 29.6143 74.1852 28.7571C73.8406 27.8714 73.6683 26.8429 73.6683 25.6714C73.6683 24.9571 73.7936 24.2143 74.0442 23.4429C74.3261 22.6714 74.6081 22.0714 74.89 21.6429L75.2659 21H80.7162C79.4946 22.7429 78.8994 24.4714 78.9308 26.1857C78.9621 27.8714 79.5259 29.4 80.6223 30.7714C81.2801 31.6 81.609 32.3857 81.609 33.1286C81.609 33.8714 81.421 34.5 81.0451 35.0143C80.6693 35.5286 80.0271 36.2429 79.1187 37.1571C78.5236 37.7286 78.1633 38.4 78.038 39.1714C77.9441 39.9429 78.0694 40.6857 78.4139 41.4C78.7898 42.1143 79.5259 42.7286 80.6223 43.2429C81.7186 43.7286 83.0969 43.9714 84.757 43.9714Z" fill="#181818"/>
<path d="M24 245.914C24 246.857 23.8569 247.986 23.5707 249.3C23.2844 250.614 22.898 252.186 22.4114 254.014C21.9249 255.814 21.5671 257.243 21.3381 258.3C21.0233 260.243 20.9803 261.857 21.2093 263.143C21.4383 264.429 21.7961 265.4 22.2826 266.057L22.9696 267H17.0877C17.0304 266.943 16.9732 266.857 16.9159 266.743C16.8587 266.6 16.7299 266.3 16.5295 265.843C16.3292 265.357 16.186 264.829 16.1002 264.257C16.0429 263.657 15.9857 262.871 15.9284 261.9C15.8712 260.9 15.9284 259.814 16.1002 258.643C16.2147 257.329 16.4723 256.029 16.873 254.743C15.4991 255.829 14.1825 256.371 12.9231 256.371C11.864 256.371 11.034 256.029 10.4329 255.343C9.86047 254.629 9.68873 253.843 9.91771 252.986C10.0894 252.3 10.4615 251.643 11.034 251.014C11.6064 250.386 12.0501 249.9 12.3649 249.557C12.7084 249.186 12.78 248.871 12.5796 248.614C12.322 248.271 11.6064 248.614 10.4329 249.643C9.25939 250.671 7.89982 252.086 6.3542 253.886C6.32558 253.943 6.19678 254.114 5.9678 254.4C5.73882 254.657 5.5814 254.829 5.49553 254.914C5.43828 254.971 5.30948 255.143 5.10912 255.429C4.90877 255.686 4.76565 255.886 4.67979 256.029C4.62254 256.171 4.50805 256.386 4.33631 256.671C4.1932 256.929 4.07871 257.157 3.99284 257.357C3.9356 257.557 3.86404 257.8 3.77818 258.086C3.69231 258.371 3.63506 258.657 3.60644 258.943C3.57782 259.2 3.56351 259.486 3.56351 259.8C3.56351 260.686 3.72093 261.543 4.03578 262.371C4.35063 263.2 4.72272 263.886 5.15206 264.429C5.61002 264.971 6.06798 265.443 6.52594 265.843C6.9839 266.243 7.3703 266.543 7.68515 266.743L8.15742 267H0C0.944544 265.914 1.41682 264.914 1.41682 264C1.41682 263.086 1.17352 262.071 0.686941 260.957C0.22898 259.843 0 258.886 0 258.086C0 257.143 0.143113 256.014 0.429338 254.7C0.715564 253.386 1.10197 251.829 1.58855 250.029C2.07513 248.2 2.43292 246.757 2.6619 245.7C2.97674 243.757 3.01968 242.143 2.7907 240.857C2.56172 239.571 2.21825 238.6 1.76029 237.943L1.03041 237H6.91234C6.96959 237.057 7.02683 237.157 7.08408 237.3C7.14132 237.414 7.27013 237.714 7.47048 238.2C7.67084 238.657 7.79964 239.186 7.85689 239.786C7.94275 240.357 8.01431 241.143 8.07156 242.143C8.1288 243.114 8.07156 244.186 7.89982 245.357C7.8712 245.7 7.79964 246.186 7.68515 246.814C9.11628 245.671 10.3184 244.986 11.2916 244.757C12.4651 244.5 13.5241 244.857 14.4687 245.829C15.4419 246.8 15.7424 247.714 15.3703 248.571C15.1699 249 14.7979 249.514 14.254 250.114C13.7388 250.686 13.3095 251.157 12.966 251.529C12.6512 251.9 12.5653 252.171 12.7084 252.343C12.7943 252.429 12.9088 252.471 13.0519 252.471C13.653 252.471 14.8122 251.571 16.5295 249.771C19.1342 247.057 20.4365 245.157 20.4365 244.071C20.4079 243.186 20.2361 242.343 19.9213 241.543C19.6064 240.743 19.22 240.086 18.7621 239.571C18.3327 239.029 17.8891 238.557 17.4311 238.157C17.0018 237.757 16.6297 237.457 16.3148 237.257L15.8426 237H24C23.0555 238.086 22.5832 239.086 22.5832 240C22.5832 240.914 22.8122 241.929 23.2701 243.043C23.7567 244.157 24 245.114 24 245.914Z" fill="#181818"/>
</svg>
