<svg width="540" height="504" viewBox="0 0 540 504" fill="none" xmlns="http://www.w3.org/2000/svg">
<path d="M302.067 102.148C321.667 105.239 328.427 114.899 342.094 121.145C353.027 126.141 366.546 139.1 371.939 144.955C436.47 192.74 420.143 192.526 430.484 211.656C440.824 230.786 432.041 238.875 430.521 242.932C429.001 246.99 451.495 255.042 451.495 255.042C472.468 267.151 474.414 266.629 489.62 284.456C501.784 298.717 493.335 316.485 487.59 323.586C486.496 331.179 480.986 346.422 467.697 346.645C454.408 346.869 440.077 338.924 437.514 339.09C434.952 339.255 443.562 349.984 447.003 351.148C450.443 352.311 491.685 356.382 495.125 357.546C498.566 358.71 523.959 354.618 536.672 372.486C549.386 390.354 527.961 404.195 515.659 408.881L466.766 436.583C454.083 443.736 451.484 435.984 448.826 437.74C446.168 439.495 445.612 445.206 442.606 445.663C424.931 446.645 418.775 440.404 417.906 437.16C411.669 409.213 408.406 388.083 404.278 382.41C400.151 376.737 379.004 363.98 378.37 367.452C381.254 370.433 375.921 381.665 374.236 383.16C372.55 384.654 367.68 387.106 362.343 395.211C355.671 405.342 349.668 404.343 340.962 395.204C333.997 387.893 319.22 337.414 314.024 333.592C308.829 329.77 289.462 313.928 281.546 305.793M302.067 102.148C292.229 95.9192 269.373 83.2715 256.654 82.5081C240.755 81.5538 224.856 80.5995 205.186 73.3555C189.45 67.5603 166.738 63.4951 157.349 62.1869C156.084 62.0046 152.618 61.2647 148.878 59.7638C145.139 58.2628 133.652 60.0199 128.375 61.0861M302.067 102.148C411.862 191.199 436.85 289.905 435.62 328.126M128.375 61.0861C126.113 59.7802 120.521 59.019 116.247 66.4215C115.24 70.4457 118.418 81.657 120.133 86.7596C120.075 93.0323 120.767 107.03 123.992 112.84C127.218 118.65 125.013 128.168 123.507 132.201M128.375 61.0861C125.17 66.6379 126.022 73.7099 127.421 76.9851C128.54 79.6053 130.431 88.867 131.236 93.1703C131.179 99.443 131.586 113.934 133.671 121.719C135.757 129.503 131.172 141.244 128.619 146.141M281.546 305.793C281.546 305.793 268.038 323.492 260.801 321.781C253.564 320.07 255.621 330.469 250.95 331.721C246.28 332.972 241.888 323.199 238.708 323.008C235.528 322.817 234.86 333.946 234.86 333.946C233.196 343.952 205.178 348.887 196.295 343.758C187.413 338.63 182.724 335.923 181.49 335.211C168.513 323.007 194.127 283.984 192.085 252.498M281.546 305.793C291.89 291.203 308.145 257.16 290.42 237.714C272.695 218.269 253.293 202.297 237.82 204.879C222.347 207.46 207.917 213.934 199.561 225.559C191.204 237.184 193.919 245.606 192.085 252.498M192.085 252.498C191.845 248.805 192.673 244.612 191.534 242.31C190.396 240.008 153.07 209.685 146.319 198.11L131.947 171.717C131.947 171.717 123.953 161.345 123.075 160.016C122.198 158.686 119.989 150.831 115.985 145.229C111.981 139.628 107.029 126.076 105.053 120.001C101.543 114.684 98.7238 99.6223 97.7531 92.7561C105.658 83.3376 113.932 110.322 117.537 114.048C119.563 116.143 121.855 124.667 123.507 132.201M140.203 103.282C140.203 103.282 141.176 103.022 143.288 105.063C145.399 107.104 160.582 149.757 148.565 150.057C136.07 150.369 133.59 153.048 128.619 146.141M128.619 146.141C127.613 144.744 126.506 142.956 125.194 140.676C124.792 138.405 124.207 135.392 123.507 132.201M533.085 384.397C520.78 376.744 475.279 365.664 461.235 369.234M524.563 393.46C513.642 385.783 482.877 370.214 459.524 376.472M514.451 402.426C504.384 394.695 480.5 380.028 465.502 383.213M496.294 412.506C488.64 405.345 470.767 391.188 460.516 391.849M482.907 422.872C474.795 412.705 455.922 391.829 445.329 389.661M467.956 427.399C459.542 418.703 442.298 399.755 440.629 393.528M452.909 433.517C446.053 425.446 432.832 406.463 434.791 395.092M438.835 439.374C433.372 429.366 423.378 406.597 427.103 395.588M201.93 90.3928C214.479 117.092 173.132 128.874 162.862 113.897C152.592 98.9199 152.312 82.3085 174.787 74.7222C181.005 73.9252 195.138 75.9437 201.93 90.3928ZM195.684 104.059C198.654 91.7918 174.813 68.9795 162.373 84.8272C149.933 100.675 167.685 112.666 168.961 113.306C176.19 116.931 192.714 116.327 195.684 104.059Z" stroke="#11009E" stroke-width="2"/>
<path d="M177.465 88.6053C185.096 89.0633 187.158 98.314 185.528 103.131C184.364 106.571 179.404 109.465 174.73 107.589C170.055 105.712 164.434 98.3542 165.241 95.5306C166.251 92.001 167.925 88.0327 177.465 88.6053Z" fill="#11009E"/>
<circle cx="2.1369" cy="2.1369" r="2.1369" transform="matrix(-0.866025 -0.5 -0.5 0.866025 173.998 93.184)" fill="#FDFFF1"/>
</svg>
