<svg width="450" height="609" viewBox="0 0 450 609" fill="none" xmlns="http://www.w3.org/2000/svg">
<path d="M74.1127 169.988C66.7239 169.988 63.3822 171.32 65.4998 179.488C66.3282 182.683 71.3981 182.988 74.1127 182.988C78.5254 182.988 78.4998 179.822 78.4998 175.488" stroke="#11009E" stroke-width="3" stroke-linecap="round"/>
<path d="M6.32205 103.589C-0.689703 103.589 0.0770998 123.331 12.6169 119.514C17.1514 118.134 24.7225 116.08 24.7225 110.368C24.7225 101.022 20.4965 99.715 12.1327 99.715" stroke="#11009E" stroke-width="3" stroke-linecap="round"/>
<path d="M91.4736 136.774C91.4736 133.039 95.3068 132.914 96.8143 135.973C97.3193 136.998 97.7783 138.919 97.022 139.978C95.7006 141.828 92.7853 141.023 91.4736 139.711" stroke="#11009E" stroke-width="3" stroke-linecap="round"/>
<path d="M25.0911 43.5713C22.1286 43.2421 19.622 37.56 20.778 35.0828C22.4656 31.4665 27.417 29.403 31.2854 30.4485C34.943 31.4371 34.8272 34.4939 34.3825 37.6064C33.9234 40.8202 31.023 42.811 27.9818 43.5713" stroke="#11009E" stroke-width="3" stroke-linecap="round"/>
<path d="M92.2847 7.07374C92.2847 5.18858 91.689 3.37508 93.7361 2.69268C95.8919 1.97411 97.7989 1.14191 99.0579 4.00968C100.034 6.23215 100.934 8.76978 98.0903 10.1915C96.2819 11.0957 95.0681 9.41311 93.7361 8.52513" stroke="#11009E" stroke-width="3" stroke-linecap="round"/>
<path d="M302.067 206.148C321.667 209.239 328.427 218.899 342.094 225.145C353.027 230.141 366.546 243.1 371.939 248.955C436.47 296.74 420.143 296.526 430.484 315.656C440.824 334.786 432.041 342.875 430.521 346.932C429.001 350.99 451.495 359.042 451.495 359.042C472.468 371.151 474.414 370.629 489.62 388.456C501.784 402.717 493.335 420.485 487.59 427.586C486.496 435.179 480.986 450.422 467.697 450.645C454.408 450.869 440.077 442.924 437.514 443.09C434.952 443.255 443.562 453.984 447.003 455.148C450.443 456.311 491.685 460.382 495.125 461.546C498.566 462.71 523.959 458.618 536.672 476.486C549.386 494.354 527.961 508.195 515.659 512.881L466.766 540.583C454.083 547.736 451.484 539.984 448.826 541.74C446.168 543.495 445.612 549.206 442.606 549.663C424.931 550.645 418.775 544.404 417.906 541.16C411.669 513.213 408.406 492.083 404.278 486.41C400.151 480.737 379.004 467.98 378.37 471.452C381.254 474.433 375.921 485.665 374.236 487.16C372.55 488.654 367.68 491.106 362.343 499.211C355.671 509.342 349.668 508.343 340.962 499.204C333.997 491.893 319.22 441.414 314.024 437.592C308.829 433.77 289.462 417.928 281.546 409.793M302.067 206.148C292.229 199.919 269.373 187.272 256.654 186.508C240.755 185.554 224.856 184.599 205.186 177.355C189.45 171.56 166.738 167.495 157.349 166.187C156.084 166.005 152.618 165.265 148.878 163.764C145.139 162.263 133.652 164.02 128.375 165.086M302.067 206.148C411.862 295.199 436.85 393.905 435.62 432.126M128.375 165.086C126.113 163.78 120.521 163.019 116.247 170.421C115.24 174.446 118.418 185.657 120.133 190.76C120.075 197.032 120.767 211.03 123.992 216.84C127.218 222.65 125.013 232.168 123.507 236.201M128.375 165.086C125.17 170.638 126.022 177.71 127.421 180.985C128.54 183.605 130.431 192.867 131.236 197.17C131.179 203.443 131.586 217.934 133.671 225.719C135.757 233.503 131.172 245.244 128.619 250.141M281.546 409.793C281.546 409.793 268.038 427.492 260.801 425.781C253.564 424.07 255.621 434.469 250.95 435.721C246.28 436.972 241.888 427.199 238.708 427.008C235.528 426.817 234.86 437.946 234.86 437.946C233.196 447.952 205.178 452.887 196.295 447.758C187.413 442.63 182.724 439.923 181.49 439.211C168.513 427.007 194.127 387.984 192.085 356.498M281.546 409.793C291.89 395.203 308.145 361.16 290.42 341.714C272.695 322.269 253.293 306.297 237.82 308.879C222.347 311.46 207.917 317.934 199.561 329.559C191.204 341.184 193.919 349.606 192.085 356.498M192.085 356.498C191.845 352.805 192.673 348.612 191.534 346.31C190.396 344.008 153.07 313.685 146.319 302.11L131.947 275.717C131.947 275.717 123.953 265.345 123.075 264.016C122.198 262.686 119.989 254.831 115.985 249.229C111.981 243.628 107.029 230.076 105.053 224.001C101.543 218.684 98.7238 203.622 97.7531 196.756C105.658 187.338 113.932 214.322 117.537 218.048C119.563 220.143 121.855 228.667 123.507 236.201M140.203 207.282C140.203 207.282 141.176 207.022 143.288 209.063C145.399 211.104 160.582 253.757 148.565 254.057C136.07 254.369 133.59 257.048 128.619 250.141M128.619 250.141C127.613 248.744 126.506 246.956 125.194 244.676C124.792 242.405 124.207 239.392 123.507 236.201M533.085 488.397C520.78 480.744 475.279 469.664 461.235 473.234M524.563 497.46C513.642 489.783 482.877 474.214 459.524 480.472M514.451 506.426C504.384 498.695 480.5 484.028 465.502 487.213M496.294 516.506C488.64 509.345 470.767 495.188 460.516 495.849M482.907 526.872C474.795 516.705 455.922 495.829 445.329 493.661M467.956 531.399C459.542 522.703 442.298 503.755 440.629 497.528M452.909 537.517C446.053 529.446 432.832 510.463 434.791 499.092M438.835 543.374C433.372 533.366 423.378 510.597 427.103 499.588M201.93 194.393C214.479 221.092 173.132 232.874 162.862 217.897C152.592 202.92 152.312 186.309 174.787 178.722C181.005 177.925 195.138 179.944 201.93 194.393ZM195.684 208.059C198.654 195.792 174.813 172.979 162.373 188.827C149.933 204.675 167.685 216.666 168.961 217.306C176.19 220.931 192.714 220.327 195.684 208.059Z" stroke="#11009E" stroke-width="2"/>
<path d="M177.465 192.605C185.096 193.063 187.158 202.314 185.528 207.131C184.364 210.571 179.404 213.465 174.73 211.589C170.055 209.712 164.434 202.354 165.241 199.531C166.251 196.001 167.925 192.033 177.465 192.605Z" fill="#11009E"/>
<circle cx="2.1369" cy="2.1369" r="2.1369" transform="matrix(-0.866025 -0.5 -0.5 0.866025 173.998 197.184)" fill="#FDFFF1"/>
</svg>
