<svg width="254" height="399" viewBox="0 0 254 399" fill="none" xmlns="http://www.w3.org/2000/svg">
<path d="M-152.177 94.3731C-136.132 82.6995 -124.521 84.7503 -110.441 79.5028C-99.1771 75.3047 -80.4541 74.9091 -72.5006 75.2361C6.91849 63.3949 -4.77707 74.7879 16.0614 81.0031C36.8999 87.2183 36.4095 99.1486 38.2035 103.092C39.9976 107.036 61.5967 96.8242 61.5967 96.8242C84.9898 90.5561 85.9971 88.8113 109.354 90.6646C128.039 92.1472 134.629 110.685 135.588 119.769C140.184 125.912 147.066 140.586 137.827 150.141C128.588 159.696 112.837 164.212 111.142 166.141C109.447 168.07 123.122 169.568 126.377 167.958C129.633 166.348 161.674 140.064 164.93 138.454C168.186 136.845 183.247 115.996 204.872 119.64C226.497 123.285 221.134 148.221 215.749 160.234L200.764 214.394C196.853 228.421 189.535 224.778 188.896 227.898C188.258 231.019 191.903 235.45 190.101 237.899C178.298 251.091 169.531 251.031 166.623 249.353C142.451 234.001 125.203 221.367 118.273 220.274C111.343 219.182 87.3684 225.114 89.3754 228.018C93.5233 228.086 97.6942 239.8 97.5594 242.048C97.4246 244.296 95.7146 249.474 97.6715 258.979C100.117 270.86 95.1663 274.399 82.548 274.093C72.4534 273.848 26.3102 248.603 19.9337 249.574C13.5572 250.545 -11.3393 253.037 -22.6879 252.883M-152.177 94.3731C-163.538 96.9255 -188.643 104.144 -198.176 112.598C-210.093 123.165 -222.01 133.733 -241.041 142.519C-256.266 149.549 -275.2 162.734 -282.764 168.448C-283.788 169.213 -286.762 171.141 -290.468 172.724C-294.173 174.307 -301.054 183.672 -304.031 188.157M-152.177 94.3731C-11.5713 79.7056 75.8929 131.831 102.049 159.728M-304.031 188.157C-306.553 188.833 -311.046 192.249 -308.834 200.505C-306.7 204.063 -296.526 209.744 -291.705 212.139C-287.31 216.615 -276.923 226.024 -270.534 227.852C-264.145 229.68 -258.974 237.969 -257.187 241.885M-304.031 188.157C-302.371 194.349 -296.768 198.747 -293.463 200.074C-290.819 201.135 -282.933 206.347 -279.32 208.821C-274.926 213.297 -264.391 223.256 -257.412 227.286C-250.433 231.315 -245.373 242.859 -243.716 248.128M-22.6879 252.883C-22.6879 252.883 -19.7248 274.949 -26.052 278.857C-32.3792 282.764 -23.5718 288.664 -25.9895 292.851C-28.4071 297.039 -38.4234 293.233 -40.8068 295.347C-43.1902 297.46 -35.793 305.802 -35.793 305.802C-29.8948 314.054 -46.2169 337.355 -56.1244 340.009C-66.0319 342.664 -71.261 344.065 -72.6371 344.434C-90.443 344.981 -99.9241 299.276 -123.633 278.456M-22.6879 252.883C-25.6914 235.252 -38.2693 199.686 -64.5527 198.469C-90.8362 197.253 -115.849 199.678 -124.964 212.444C-134.08 225.211 -139.706 239.992 -137.395 254.121C-135.084 268.251 -127.208 272.286 -123.633 278.456M-123.633 278.456C-126.414 276.014 -128.793 272.464 -131.226 271.641C-133.658 270.818 -181.494 275.77 -194.452 272.359L-223.277 263.86C-223.277 263.86 -236.264 262.178 -237.824 261.858C-239.385 261.539 -246.502 257.546 -253.294 256.417C-260.086 255.287 -273.17 249.206 -278.863 246.307C-285.104 245.03 -297.748 236.373 -303.29 232.204C-304.36 219.955 -279.429 233.185 -274.244 233.271C-271.331 233.319 -263.683 237.726 -257.187 241.885M-265.83 209.631C-265.83 209.631 -265.326 208.758 -262.39 208.709C-259.453 208.659 -218.557 228.083 -226.842 236.793C-235.457 245.848 -235.316 249.497 -243.716 248.128M-243.716 248.128C-245.414 247.851 -247.462 247.369 -250.002 246.685C-251.892 245.363 -254.436 243.646 -257.187 241.885M210.758 130.599C196.645 133.889 156.636 158.227 149.231 170.683M211.14 143.033C197.99 145.328 165.226 156.073 153.138 177.011M210.33 156.524C197.745 158.176 170.486 164.693 162.132 177.55M204.619 176.49C194.143 176.839 171.495 179.466 164.713 187.183M202.482 193.286C189.557 191.833 161.45 190.417 152.427 196.374M195.112 207.06C183.013 206.86 157.421 205.655 151.838 202.432M188.798 222.025C178.243 221.166 155.471 217.092 148.816 207.666M182.987 236.119C172.048 232.905 148.881 223.872 143.73 213.453M-231.297 156.869C-203.543 166.874 -224.449 204.442 -242.302 201.114C-260.154 197.786 -272.098 186.238 -261.57 164.981C-257.737 160.021 -246.316 151.455 -231.297 156.869ZM-226.049 170.949C-232.624 160.174 -265.613 160.902 -263.203 180.904C-260.793 200.907 -239.762 196.833 -238.407 196.383C-230.733 193.835 -219.475 181.724 -226.049 170.949Z" stroke="#11009E" stroke-width="2"/>
</svg>
