<svg width="399" height="598" viewBox="0 0 399 598" fill="none" xmlns="http://www.w3.org/2000/svg">
<path d="M304.364 191.823C316.038 207.868 313.987 219.479 319.235 233.559C323.433 244.823 323.828 263.546 323.501 271.499C335.342 350.918 323.949 339.223 317.734 360.061C311.519 380.9 299.589 380.409 295.645 382.204C291.701 383.998 301.913 405.597 301.913 405.597C308.181 428.99 309.926 429.997 308.073 453.354C306.59 472.039 288.052 478.629 278.968 479.588C272.825 484.184 258.151 491.066 248.596 481.827C239.041 472.588 234.526 456.837 232.597 455.142C230.668 453.447 229.17 467.122 230.78 470.377C232.389 473.633 258.673 505.674 260.283 508.93C261.893 512.186 282.742 527.247 279.097 548.872C275.452 570.497 250.516 565.134 238.503 559.749L184.343 544.764C170.316 540.853 173.96 533.535 170.839 532.896C167.718 532.258 163.287 535.903 160.838 534.101C147.646 522.298 147.706 513.531 149.385 510.623C164.736 486.451 177.37 469.203 178.463 462.273C179.556 455.343 173.623 431.368 170.72 433.375C170.651 437.523 158.938 441.694 156.689 441.559C154.441 441.425 149.263 439.715 139.758 441.671C127.878 444.117 124.339 439.166 124.645 426.548C124.89 416.453 150.134 370.31 149.163 363.934C148.192 357.557 145.7 332.661 145.855 321.312M304.364 191.823C301.812 180.462 294.593 155.357 286.139 145.824C275.572 133.907 265.004 121.99 256.218 102.959C249.189 87.7336 236.004 68.7996 230.29 61.2356C229.524 60.2118 227.596 57.2378 226.013 53.5324C224.431 49.8269 215.065 42.9464 210.58 39.9693M304.364 191.823C319.032 332.429 266.906 419.893 239.009 446.049M210.58 39.9693C209.904 37.4466 206.488 32.9541 198.232 35.1664C194.674 37.2995 188.994 47.4742 186.598 52.295C182.122 56.6899 172.713 67.0769 170.885 73.466C169.058 79.8552 160.769 85.0259 156.852 86.8126M210.58 39.9693C204.388 41.6286 199.99 47.2318 198.663 50.537C197.602 53.1811 192.39 61.0671 189.917 64.6795C185.441 69.0744 175.481 79.6089 171.452 86.588C167.422 93.5671 155.878 98.6269 150.609 100.284M145.855 321.312C145.855 321.312 123.788 324.275 119.881 317.948C115.973 311.621 110.074 320.428 105.886 318.011C101.699 315.593 105.504 305.577 103.391 303.193C101.277 300.81 92.9353 308.207 92.9353 308.207C84.6833 314.105 61.3825 297.783 58.7278 287.876C56.0731 277.968 54.672 272.739 54.3032 271.363C53.7563 253.557 99.4611 244.076 120.281 220.367M145.855 321.312C163.485 318.309 199.051 305.731 200.268 279.447C201.485 253.164 199.06 228.151 186.293 219.036C173.527 209.92 158.745 204.294 144.616 206.605C130.487 208.916 126.452 216.792 120.281 220.367M120.281 220.367C122.723 217.586 126.273 215.207 127.096 212.774C127.919 210.342 122.967 162.506 126.378 149.548L134.878 120.723C134.878 120.723 136.56 107.736 136.879 106.176C137.198 104.615 141.191 97.4984 142.321 90.7063C143.45 83.9142 149.531 70.8302 152.43 65.1372C153.708 58.8955 162.364 46.2519 166.533 40.7103C178.783 39.6402 165.552 64.571 165.467 69.7558C165.419 72.6694 161.011 80.3174 156.852 86.8126M189.107 78.17C189.107 78.17 189.979 78.6739 190.029 81.6104C190.078 84.5468 170.654 125.443 161.945 117.158C152.889 108.543 149.241 108.684 150.609 100.284M150.609 100.284C150.886 98.5859 151.368 96.5383 152.052 93.9984C153.374 92.1082 155.091 89.5638 156.852 86.8126M268.138 554.758C264.848 540.645 240.51 500.636 228.054 493.231M255.704 555.14C253.409 541.99 242.664 509.226 221.727 497.138M242.213 554.33C240.562 541.745 234.044 514.486 221.187 506.132M222.247 548.619C221.898 538.143 219.271 515.495 211.554 508.713M205.451 546.482C206.904 533.557 208.32 505.45 202.363 496.427M191.677 539.112C191.877 527.013 193.082 501.421 196.306 495.838M176.712 532.798C177.571 522.243 181.646 499.471 191.071 492.816M162.619 526.987C165.833 516.048 174.865 492.881 185.284 487.73M241.868 112.703C231.863 140.457 194.295 119.551 197.623 101.698C200.952 83.8457 212.5 71.9019 233.756 82.4298C238.716 86.2628 247.283 97.6836 241.868 112.703ZM227.788 117.951C238.563 111.376 237.835 78.3872 217.833 80.7971C197.831 83.2069 201.904 104.238 202.354 105.593C204.902 113.267 217.014 124.525 227.788 117.951Z" stroke="#11009E" stroke-width="2"/>
<path d="M225.833 94.1397C230.905 99.8599 225.822 107.859 221.264 110.113C218.008 111.722 212.454 110.261 210.476 105.629C208.497 100.997 209.725 91.819 212.293 90.3935C215.502 88.6117 219.492 86.9895 225.833 94.1397Z" fill="#11009E"/>
<circle cx="2.1369" cy="2.1369" r="2.1369" transform="matrix(-0.258819 -0.965926 -0.965926 0.258819 220.144 94.9264)" fill="#FDFFF1"/>
</svg>
