<svg width="290" height="269" viewBox="0 0 290 269" fill="none" xmlns="http://www.w3.org/2000/svg">
<path d="M197.672 5.42897C216.191 -1.69402 226.876 3.29205 241.834 1.86745C253.801 0.727768 271.988 5.19152 279.586 7.56586C359.364 16.6833 345.118 24.6611 363.638 36.0579C382.158 47.4547 378.596 58.8516 379.308 63.1253C380.021 67.3991 403.527 63.1253 403.527 63.1253C427.745 63.1253 429.17 61.7008 451.251 69.5361C468.916 75.8043 470.483 95.4163 469.059 104.439C471.908 111.562 474.757 127.517 463.36 134.355C451.963 141.194 435.58 141.478 433.443 142.903C431.307 144.328 444.128 149.314 447.689 148.602C451.251 147.889 489.003 130.794 492.564 130.082C496.126 129.369 516.071 113.129 536.015 122.246C555.959 131.364 544.325 154.062 536.015 164.272L507.523 212.709C500.115 225.245 493.989 219.832 492.564 222.681C491.14 225.53 493.514 230.754 491.14 232.653C476.324 242.34 467.871 240.013 465.497 237.639C446.122 216.555 432.731 199.887 426.32 197.038C419.91 194.189 395.217 193.714 396.404 197.038C400.393 198.178 401.39 210.572 400.677 212.709C399.965 214.846 396.974 219.404 396.404 229.092C395.691 241.201 389.993 243.338 377.884 239.776C368.197 236.927 330.16 200.599 323.749 199.887C317.338 199.175 292.645 195.139 281.723 192.052M197.672 5.42897C186.037 4.95411 159.92 5.42898 148.523 11.1274C134.277 18.2504 120.031 25.3734 99.374 28.9349C82.8486 31.7841 61.1472 39.6194 52.3621 43.1809C51.175 43.6558 47.8034 44.748 43.8145 45.3178C39.8256 45.8877 30.7556 53.1532 26.7193 56.7147M197.672 5.42897C337.283 27.6528 408.275 100.64 426.32 134.355M26.7193 56.7147C24.1075 56.7147 18.884 58.8516 18.884 67.3992C20.0235 71.3881 28.3814 79.5083 32.4179 83.0698C35.5045 88.5308 43.1024 100.307 48.8008 103.727C54.4992 107.146 57.3483 116.491 58.0605 120.736M26.7193 56.7147C26.7193 63.1254 30.9933 68.8238 33.8425 70.9607C36.1219 72.6702 42.3901 79.7457 45.2393 83.0698C48.3259 88.5308 55.9238 100.877 61.6222 106.576C67.3206 112.274 69.2201 124.735 69.4575 130.253M281.723 192.052C281.723 192.052 278.874 214.133 271.751 216.27C264.628 218.407 271.609 226.385 268.19 229.804C264.771 233.223 256.08 226.955 253.231 228.379C250.382 229.804 255.368 239.776 255.368 239.776C258.93 249.273 237.133 267.556 226.876 267.556C216.619 267.556 211.205 267.556 209.781 267.556C192.44 263.476 195.111 216.874 177.599 190.627M281.723 192.052C283.385 174.244 280.441 136.635 255.368 128.657C230.295 120.679 205.507 116.548 193.398 126.52C181.289 136.492 172.029 149.314 170.604 163.56C169.18 177.806 175.742 183.742 177.599 190.627M177.599 190.627C175.545 187.549 174.166 183.504 172.029 182.08C169.892 180.655 122.405 173.057 110.771 166.409L85.128 150.738C85.128 150.738 73.0187 145.752 71.5943 145.04C70.1698 144.328 64.3288 138.629 58.0605 135.78C51.7923 132.931 40.7279 123.671 35.9792 119.397C30.2808 116.548 20.3086 104.914 16.0348 99.4527C18.1715 87.3436 38.8286 106.576 43.8145 108C46.6164 108.801 52.863 115.038 58.0605 120.736M58.0605 87.3436C58.0605 87.3436 58.773 86.6313 61.6222 87.3436C64.4714 88.0559 98.9468 117.403 88.6897 123.671C78.0248 130.188 77.2166 133.749 69.4575 130.253M69.4575 130.253C67.8886 129.546 66.0354 128.55 63.7591 127.232C62.2755 125.466 60.2621 123.149 58.0605 120.736M538.864 134.355C524.381 133.881 479.436 147.034 469.059 157.149M536.015 146.465C522.719 145.277 488.291 147.177 471.195 164.272M531.741 159.286C519.157 157.624 491.14 156.864 479.743 167.121M521.057 177.094C510.847 174.719 488.291 171.395 479.743 177.094M514.646 192.764C502.537 188.016 475.754 179.373 465.497 182.792M503.961 204.161C492.327 200.837 467.919 193.049 463.36 188.49M493.989 216.982C484.017 213.421 463.075 203.591 459.086 192.764M484.729 229.092C474.994 223.156 454.955 208.435 452.676 197.038M105.073 45.3178C129.291 62.1653 99.374 93.042 82.9913 85.2067C66.6085 77.3714 58.0606 63.1254 73.7314 45.3178C78.7175 41.5189 91.9663 36.2004 105.073 45.3178ZM106.497 60.2762C102.936 48.167 70.8821 40.3317 68.0329 60.2762C65.1837 80.2206 86.5528 81.729 87.9774 81.6452C96.0501 81.1703 110.059 72.3853 106.497 60.2762Z" stroke="#11009E" stroke-width="2"/>
<path d="M82.9914 56.0025C89.8295 52.5835 96.2402 59.564 97.2374 64.5501C97.9497 68.1116 95.1005 73.0977 90.1144 73.81C85.1283 74.5223 76.5807 70.9608 75.8684 68.1116C74.978 64.5501 74.4437 60.2763 82.9914 56.0025Z" fill="#11009E"/>
<circle cx="2.1369" cy="2.1369" r="2.1369" transform="matrix(-1 2.58096e-08 2.58096e-08 1 82.2788 61.7007)" fill="#FDFFF1"/>
</svg>
