<svg width="786" height="786" viewBox="0 0 786 786" fill="none" xmlns="http://www.w3.org/2000/svg">
<path d="M498.364 285.823C510.038 301.868 507.987 313.479 513.235 327.559C517.433 338.823 517.828 357.546 517.501 365.499C529.342 444.918 517.949 433.223 511.734 454.061C505.519 474.9 493.589 474.409 489.645 476.204C485.701 477.998 495.913 499.597 495.913 499.597C502.181 522.99 503.926 523.997 502.073 547.354C500.59 566.039 482.052 572.629 472.968 573.588C466.825 578.184 452.151 585.066 442.596 575.827C433.041 566.588 428.526 550.837 426.597 549.142C424.668 547.447 423.17 561.122 424.78 564.377C426.389 567.633 452.673 599.674 454.283 602.93C455.893 606.186 476.742 621.247 473.097 642.872C469.452 664.497 444.516 659.134 432.503 653.749L378.343 638.764C364.316 634.853 367.96 627.535 364.839 626.896C361.718 626.258 357.287 629.903 354.838 628.101C341.646 616.298 341.706 607.531 343.385 604.623C358.736 580.451 371.37 563.203 372.463 556.273C373.556 549.343 367.623 525.368 364.72 527.375C364.651 531.523 352.938 535.694 350.689 535.559C348.441 535.425 343.263 533.715 333.758 535.671C321.878 538.117 318.339 533.166 318.645 520.548C318.89 510.453 344.134 464.31 343.163 457.934C342.192 451.557 339.7 426.661 339.855 415.312M498.364 285.823C495.812 274.462 488.593 249.357 480.139 239.824C469.572 227.907 459.004 215.99 450.218 196.959C443.189 181.734 430.004 162.8 424.29 155.236C423.524 154.212 421.596 151.238 420.013 147.532C418.431 143.827 409.065 136.946 404.58 133.969M498.364 285.823C513.032 426.429 460.906 513.893 433.009 540.049M404.58 133.969C403.904 131.447 400.488 126.954 392.232 129.166C388.674 131.3 382.994 141.474 380.598 146.295C376.122 150.69 366.713 161.077 364.885 167.466C363.058 173.855 354.769 179.026 350.852 180.813M404.58 133.969C398.388 135.629 393.99 141.232 392.663 144.537C391.602 147.181 386.39 155.067 383.917 158.68C379.441 163.074 369.481 173.609 365.452 180.588C361.422 187.567 349.878 192.627 344.609 194.284M339.855 415.312C339.855 415.312 317.788 418.275 313.881 411.948C309.973 405.621 304.074 414.428 299.886 412.011C295.699 409.593 299.504 399.577 297.391 397.193C295.277 394.81 286.935 402.207 286.935 402.207C278.683 408.105 255.383 391.783 252.728 381.876C250.073 371.968 248.672 366.739 248.303 365.363C247.756 347.557 293.461 338.076 314.281 314.367M339.855 415.312C357.485 412.309 393.051 399.731 394.268 373.447C395.485 347.164 393.06 322.151 380.293 313.036C367.527 303.92 352.745 298.294 338.616 300.605C324.487 302.916 320.452 310.792 314.281 314.367M314.281 314.367C316.723 311.586 320.273 309.207 321.096 306.774C321.919 304.342 316.967 256.506 320.378 243.548L328.878 214.723C328.878 214.723 330.56 201.736 330.879 200.176C331.198 198.615 335.191 191.498 336.321 184.706C337.45 177.914 343.531 164.83 346.43 159.137C347.708 152.896 356.364 140.252 360.533 134.71C372.783 133.64 359.552 158.571 359.467 163.756C359.419 166.669 355.011 174.317 350.852 180.813M383.107 172.17C383.107 172.17 383.979 172.674 384.029 175.61C384.078 178.547 364.654 219.443 355.945 211.158C346.889 202.543 343.241 202.684 344.609 194.284M344.609 194.284C344.886 192.586 345.368 190.538 346.052 187.998C347.374 186.108 349.091 183.564 350.852 180.813M462.138 648.758C458.848 634.645 434.51 594.636 422.054 587.231M449.704 649.14C447.409 635.99 436.664 603.226 415.727 591.138M436.213 648.33C434.562 635.745 428.044 608.486 415.187 600.132M416.247 642.619C415.898 632.143 413.271 609.495 405.554 602.713M399.451 640.482C400.904 627.557 402.32 599.45 396.363 590.427M385.677 633.112C385.877 621.013 387.082 595.421 390.306 589.838M370.712 626.798C371.571 616.243 375.646 593.471 385.071 586.816M356.619 620.987C359.833 610.048 368.865 586.881 379.284 581.73M435.868 206.703C425.863 234.457 388.295 213.551 391.623 195.698C394.952 177.846 406.5 165.902 427.756 176.43C432.716 180.263 441.283 191.684 435.868 206.703ZM421.788 211.951C432.563 205.376 431.835 172.387 411.833 174.797C391.831 177.207 395.904 198.238 396.354 199.593C398.902 207.267 411.014 218.525 421.788 211.951Z" stroke="#11009E" stroke-width="2"/>
<path d="M419.833 188.14C424.905 193.86 419.822 201.859 415.264 204.113C412.008 205.722 406.454 204.261 404.476 199.629C402.497 194.997 403.725 185.819 406.293 184.394C409.502 182.612 413.492 180.99 419.833 188.14Z" fill="#11009E"/>
<circle cx="2.1369" cy="2.1369" r="2.1369" transform="matrix(-0.258819 -0.965926 -0.965926 0.258819 414.144 188.926)" fill="#FDFFF1"/>
</svg>
