<svg width="883" height="120" viewBox="0 0 883 120" fill="none" xmlns="http://www.w3.org/2000/svg">
<path d="M33.9 22.7C31.2333 22.7 29.3333 23.3667 28.2 24.7C27.0667 25.9667 26.5 28.1 26.5 31.1V34.8H41.1V46H26.5V73.8H41.1V85H3.5V73.8H13.7V46H3.5V34.8H13.7V30.7C13.7 17.9 20.9 11.5 35.3 11.5H43.9V22.7H33.9ZM55.657 79C50.5237 74.3333 47.957 67.9667 47.957 59.9C47.957 51.8333 50.5237 45.4667 55.657 40.8C60.7904 36.1333 67.4237 33.8 75.557 33.8C83.6237 33.8 90.2237 36.1333 95.357 40.8C100.49 45.4667 103.057 51.8333 103.057 59.9C103.057 67.9667 100.49 74.3333 95.357 79C90.2237 83.6667 83.6237 86 75.557 86C67.4237 86 60.7904 83.6667 55.657 79ZM64.757 49C62.157 51.6667 60.857 55.3 60.857 59.9C60.857 64.5 62.157 68.1333 64.757 70.8C67.357 73.4667 70.957 74.8 75.557 74.8C80.157 74.8 83.757 73.4667 86.357 70.8C88.957 68.1333 90.257 64.5 90.257 59.9C90.257 55.3 88.957 51.6667 86.357 49C83.757 46.3333 80.157 45 75.557 45C70.957 45 67.357 46.3333 64.757 49ZM111.773 85V41.7C111.773 39.1667 112.44 37.2333 113.773 35.9C115.173 34.5667 117.14 33.9333 119.673 34L150.573 34.8V46L124.673 45.3V85H111.773ZM229.227 34.8H243.627L221.127 83V97.9C221.127 103.033 218.493 105.5 213.227 105.3L190.727 104.5V93.3L208.327 93.9V83L185.727 34.8H200.127L213.027 67V73.3H216.427V67L229.227 34.8ZM252.727 79C247.594 74.3333 245.027 67.9667 245.027 59.9C245.027 51.8333 247.594 45.4667 252.727 40.8C257.861 36.1333 264.494 33.8 272.627 33.8C280.694 33.8 287.294 36.1333 292.427 40.8C297.561 45.4667 300.127 51.8333 300.127 59.9C300.127 67.9667 297.561 74.3333 292.427 79C287.294 83.6667 280.694 86 272.627 86C264.494 86 257.861 83.6667 252.727 79ZM261.827 49C259.227 51.6667 257.927 55.3 257.927 59.9C257.927 64.5 259.227 68.1333 261.827 70.8C264.427 73.4667 268.027 74.8 272.627 74.8C277.227 74.8 280.827 73.4667 283.427 70.8C286.027 68.1333 287.327 64.5 287.327 59.9C287.327 55.3 286.027 51.6667 283.427 49C280.827 46.3333 277.227 45 272.627 45C268.027 45 264.427 46.3333 261.827 49ZM332.044 74.8C336.91 74.8 340.744 73.1667 343.544 69.9C346.41 66.5667 347.844 61.5667 347.844 54.9V34.8H360.644V85H347.844V77.9L350.144 70.2H346.844C345.777 74.9333 343.61 78.7667 340.344 81.7C337.144 84.5667 332.944 86 327.744 86C321.477 86 316.577 84.0667 313.044 80.2C309.577 76.2667 307.844 70.6667 307.844 63.4V34.8H320.744V61.4C320.744 66.2667 321.61 69.7333 323.344 71.8C325.077 73.8 327.977 74.8 332.044 74.8ZM370.758 85V41.7C370.758 39.1667 371.424 37.2333 372.758 35.9C374.158 34.5667 376.124 33.9333 378.658 34L409.558 34.8V46L383.658 45.3V85H370.758ZM513.567 79C508.434 74.3333 505.867 67.9667 505.867 59.9C505.867 51.8333 508.434 45.4667 513.567 40.8C518.701 36.1333 525.334 33.8 533.467 33.8C541.534 33.8 548.134 36.1333 553.267 40.8C558.401 45.4667 560.967 51.8333 560.967 59.9C560.967 67.9667 558.401 74.3333 553.267 79C548.134 83.6667 541.534 86 533.467 86C525.334 86 518.701 83.6667 513.567 79ZM522.667 49C520.067 51.6667 518.767 55.3 518.767 59.9C518.767 64.5 520.067 68.1333 522.667 70.8C525.267 73.4667 528.867 74.8 533.467 74.8C538.067 74.8 541.667 73.4667 544.267 70.8C546.867 68.1333 548.167 64.5 548.167 59.9C548.167 55.3 546.867 51.6667 544.267 49C541.667 46.3333 538.067 45 533.467 45C528.867 45 525.267 46.3333 522.667 49ZM565.316 85V73.8H579.316V22L568.016 22.7V11.5L584.216 10.7C586.816 10.5667 588.783 11.1667 590.116 12.5C591.516 13.8333 592.216 15.8333 592.216 18.5V73.8H606.116V85H565.316ZM637.808 26.7C636.274 28.0333 634.208 28.7 631.608 28.7C629.008 28.7 626.941 28.0333 625.408 26.7C623.874 25.3 623.108 23.4333 623.108 21.1C623.108 18.7667 623.874 16.9333 625.408 15.6C626.941 14.2 629.008 13.5 631.608 13.5C634.141 13.5 636.208 14.2 637.808 15.6C639.408 17 640.208 18.8333 640.208 21.1C640.208 23.4333 639.408 25.3 637.808 26.7ZM612.508 85V73.8H626.708V45.3L615.208 46V34.8L631.208 33.8C633.741 33.6667 635.674 34.2667 637.008 35.6C638.341 36.9333 639.008 38.8333 639.008 41.3V73.8H653.208V85H612.508ZM713.637 85H700.737V80.2L703.137 72.6H699.737C696.737 81.5333 690.07 86 679.737 86C672.737 86 667.203 83.5333 663.137 78.6C659.137 73.6667 657.137 67.4333 657.137 59.9C657.137 52.3667 659.137 46.1333 663.137 41.2C667.203 36.2667 672.737 33.8 679.737 33.8C690.07 33.8 696.737 38.3 699.737 47.3H703.137L700.737 39.6V11.5H713.637V85ZM696.637 71.1C699.37 68.6333 700.737 64.9 700.737 59.9C700.737 54.9 699.37 51.1667 696.637 48.7C693.903 46.2333 690.103 45 685.237 45C675.103 45 670.037 49.9667 670.037 59.9C670.037 69.8333 675.103 74.8 685.237 74.8C690.103 74.8 693.903 73.5667 696.637 71.1ZM722.762 71.2C722.762 66.8667 724.195 63.4333 727.062 60.9C729.995 58.3667 734.795 56.7 741.462 55.9L758.862 53.8C758.662 47.5333 754.795 44.4 747.262 44.4C743.728 44.4 740.895 45.2 738.762 46.8C736.695 48.3333 735.662 50.6667 735.662 53.8H723.462C723.462 47.8667 725.662 43.0667 730.062 39.4C734.462 35.6667 740.195 33.8 747.262 33.8C754.528 33.8 760.428 35.8 764.962 39.8C769.495 43.7333 771.762 49.4 771.762 56.8V73.8H779.062V85H768.862C766.662 85 764.962 84.4 763.762 83.2C762.628 82 762.062 80.3333 762.062 78.2V76.5L764.062 70.8H760.662C758.262 80.9333 751.528 86 740.462 86C736.862 86 733.795 85.5 731.262 84.5C728.795 83.5 726.995 82.1667 725.862 80.5C724.728 78.8333 723.928 77.2667 723.462 75.8C722.995 74.2667 722.762 72.7333 722.762 71.2ZM735.662 69C735.662 70.9333 736.295 72.4 737.562 73.4C738.895 74.3333 740.628 74.8 742.762 74.8C747.628 74.8 751.528 73.6 754.462 71.2C757.395 68.7333 758.862 65.5333 758.862 61.6L743.762 63.5C740.895 63.8333 738.828 64.4 737.562 65.2C736.295 65.9333 735.662 67.2 735.662 69ZM817.898 34.8H832.298L809.798 83V97.9C809.798 103.033 807.165 105.5 801.898 105.3L779.398 104.5V93.3L796.998 93.9V83L774.398 34.8H788.798L801.698 67V73.3H805.098V67L817.898 34.8ZM880.383 71.5C880.383 81.1667 873.083 86 858.483 86C849.949 86 843.616 84.3333 839.483 81C835.416 77.6 833.383 72.8333 833.383 66.7H846.283C846.283 72.9667 850.449 76.1 858.783 76.1C864.583 76.1 867.483 74.5 867.483 71.3C867.483 69.6333 866.749 68.3667 865.283 67.5C863.816 66.6333 861.183 65.6 857.383 64.4C856.383 64.1333 855.616 63.9 855.083 63.7C848.483 61.5 844.149 59.7667 842.083 58.5C837.883 55.8333 835.749 52.2 835.683 47.6C835.683 43.2667 837.483 39.9 841.083 37.5C844.683 35.0333 849.716 33.8 856.183 33.8C863.849 33.8 869.516 35.5 873.183 38.9C876.849 42.2333 878.683 46.4333 878.683 51.5H865.783C865.783 46.3 862.549 43.7 856.083 43.7C851.083 43.7 848.583 45.1 848.583 47.9C848.583 49.4333 849.483 50.6667 851.283 51.6C853.083 52.5333 856.316 53.7667 860.983 55.3C867.649 57.5 871.949 59.1667 873.883 60.3C878.216 62.9667 880.383 66.7 880.383 71.5Z" fill="#181818"/>
<path d="M499 41.4229C499 43.3714 498.702 45.7038 498.106 48.42C497.509 51.1362 496.704 54.3838 495.691 58.1629C494.677 61.8829 493.931 64.8352 493.454 67.02C492.798 71.0352 492.709 74.3714 493.186 77.0286C493.663 79.6857 494.408 81.6933 495.422 83.0514L496.853 85H484.599C484.48 84.8819 484.361 84.7048 484.242 84.4686C484.122 84.1733 483.854 83.5533 483.436 82.6086C483.019 81.6048 482.721 80.5124 482.542 79.3314C482.423 78.0914 482.304 76.4676 482.184 74.46C482.065 72.3933 482.184 70.1495 482.542 67.7286C482.781 65.0124 483.317 62.3257 484.152 59.6686C481.29 61.9124 478.547 63.0343 475.923 63.0343C473.717 63.0343 471.987 62.3257 470.735 60.9086C469.543 59.4324 469.185 57.8086 469.662 56.0371C470.02 54.62 470.795 53.2619 471.987 51.9629C473.18 50.6638 474.104 49.66 474.76 48.9514C475.476 48.1838 475.625 47.5343 475.208 47.0029C474.671 46.2943 473.18 47.0029 470.735 49.1286C468.29 51.2543 465.458 54.1771 462.238 57.8971C462.178 58.0152 461.91 58.3695 461.433 58.96C460.956 59.4914 460.628 59.8457 460.449 60.0229C460.33 60.1409 460.061 60.4952 459.644 61.0857C459.227 61.6171 458.928 62.0305 458.75 62.3257C458.63 62.621 458.392 63.0638 458.034 63.6543C457.736 64.1857 457.497 64.6581 457.318 65.0714C457.199 65.4848 457.05 65.9867 456.871 66.5771C456.692 67.1676 456.573 67.7581 456.513 68.3486C456.454 68.88 456.424 69.4705 456.424 70.12C456.424 71.9505 456.752 73.7219 457.408 75.4343C458.064 77.1467 458.839 78.5638 459.733 79.6857C460.688 80.8076 461.642 81.7819 462.596 82.6086C463.55 83.4352 464.355 84.0552 465.011 84.4686L465.995 85H449C450.968 82.7562 451.952 80.6895 451.952 78.8C451.952 76.9105 451.445 74.8143 450.431 72.5114C449.477 70.2086 449 68.2305 449 66.5771C449 64.6286 449.298 62.2962 449.894 59.58C450.491 56.8638 451.296 53.6457 452.309 49.9257C453.323 46.1467 454.069 43.1648 454.546 40.98C455.202 36.9648 455.291 33.6286 454.814 30.9714C454.337 28.3143 453.621 26.3067 452.667 24.9486L451.147 23H463.401C463.52 23.1181 463.639 23.3248 463.758 23.62C463.878 23.8562 464.146 24.4762 464.564 25.48C464.981 26.4248 465.249 27.5171 465.369 28.7571C465.547 29.9381 465.696 31.5619 465.816 33.6286C465.935 35.6362 465.816 37.8505 465.458 40.2714C465.398 40.98 465.249 41.9838 465.011 43.2829C467.992 40.921 470.497 39.5038 472.524 39.0314C474.969 38.5 477.175 39.2381 479.143 41.2457C481.171 43.2533 481.797 45.1429 481.021 46.9143C480.604 47.8 479.829 48.8629 478.696 50.1029C477.623 51.2838 476.728 52.2581 476.013 53.0257C475.357 53.7933 475.178 54.3543 475.476 54.7086C475.655 54.8857 475.893 54.9743 476.191 54.9743C477.444 54.9743 479.859 53.1143 483.436 49.3943C488.863 43.7848 491.576 39.8581 491.576 37.6143C491.516 35.7838 491.159 34.0419 490.503 32.3886C489.847 30.7352 489.042 29.3771 488.088 28.3143C487.193 27.1924 486.269 26.2181 485.315 25.3914C484.42 24.5648 483.645 23.9448 482.989 23.5314L482.005 23H499C497.032 25.2438 496.048 27.3105 496.048 29.2C496.048 31.0895 496.525 33.1857 497.479 35.4886C498.493 37.7914 499 39.7695 499 41.4229Z" fill="#181818"/>
</svg>
