<svg width="3544" height="106" viewBox="0 0 3544 106" fill="none" xmlns="http://www.w3.org/2000/svg">
<path d="M2 67.1659C5.26237 51.92 15.3273 2.85288 29.9215 2.06594C45.5967 1.2207 57.4169 8.62192 71.6519 17.3836C84.8597 25.513 95.9815 32.6363 107.312 44.1894C117.643 54.7221 127.016 66.7776 139.179 73.1227C150.925 79.2502 172.762 76.9033 184.4 73.1227C200.39 67.9283 216.294 44.1894 232.807 44.1894C251.659 44.1894 272.28 31.2349 288.954 52.2738C305.938 73.7035 314.406 101.789 336.451 85.462C354.684 71.9571 373.745 58.3273 388.652 38.2326C394.277 30.6487 403.581 19.8105 410.807 15.4689C428.76 4.68148 453.289 9.0445 471.961 12.0649C488.317 14.7109 512.729 18.6716 525.831 35.6796C540.795 55.1047 544.483 74.8247 567.41 74.8247C585.691 74.8247 611.018 40.4122 619.155 17.5963C624.508 2.58629 650.352 -0.380589 658.761 9.72475C675.438 29.7652 691.56 58.7859 712.48 68.8679C735.433 79.9296 764.556 92.9275 781.828 63.1237C795.865 38.9033 802.976 25.0424 827.504 25.0424C842.716 25.0424 851.002 24.3828 863.772 36.3179C888.875 59.7803 974.395 125.973 974.395 44.1894C987.525 18.6984 1022.57 -18.691 1057.71 35.6796C1092.86 90.0502 1113.79 80.4595 1119.86 68.8679C1136.29 38.8211 1175.64 -8.18008 1201.64 44.1894C1234.14 109.651 1237.36 114.384 1252.71 91.626C1268.07 68.8678 1280.93 -18.7831 1306.29 25.0424C1331.64 68.8679 1368.43 108.427 1389.5 91.626C1410.57 74.8247 1416.29 7.38456 1444.5 9.72475C1472.71 12.0649 1565.93 139.063 1628.07 91.626C1690.21 44.1894 1701.64 -13.5218 1772 91.626C1842.36 -13.5218 1853.79 44.1894 1915.93 91.626C1978.07 139.063 2071.29 12.065 2099.5 9.72477C2127.71 7.38457 2133.43 74.8247 2154.5 91.626C2175.57 108.427 2212.36 68.8679 2237.71 25.0424C2263.07 -18.7831 2275.93 68.8679 2291.29 91.626C2306.64 114.384 2309.86 109.651 2342.36 44.1894C2368.36 -8.18007 2407.71 38.8211 2424.14 68.8679C2430.21 80.4595 2451.14 90.0502 2486.29 35.6796C2521.43 -18.6909 2556.47 18.6984 2569.6 44.1894C2569.6 125.973 2655.13 59.7803 2680.23 36.3179C2693 24.3828 2701.28 25.0424 2716.5 25.0424C2741.02 25.0424 2748.14 38.9033 2762.17 63.1238C2779.44 92.9275 2808.57 79.9296 2831.52 68.8679C2852.44 58.7859 2868.56 29.7652 2885.24 9.72477C2893.65 -0.380575 2919.49 2.5863 2924.84 17.5963C2932.98 40.4122 2958.31 74.8247 2976.59 74.8247C2999.52 74.8247 3003.21 55.1047 3018.17 35.6796C3031.27 18.6716 3055.68 14.7109 3072.04 12.065C3090.71 9.04451 3115.24 4.68149 3133.19 15.4689C3140.42 19.8106 3149.72 30.6487 3155.35 38.2326C3170.25 58.3273 3189.32 71.9571 3207.55 85.462C3229.59 101.789 3238.06 73.7035 3255.05 52.2738C3271.72 31.2349 3292.34 44.1894 3311.19 44.1894C3327.71 44.1894 3343.61 67.9283 3359.6 73.1228C3371.24 76.9033 3393.07 79.2502 3404.82 73.1228C3416.98 66.7776 3426.36 54.7222 3436.69 44.1894C3448.02 32.6363 3459.14 25.513 3472.35 17.3836C3486.58 8.62193 3498.4 1.22071 3514.08 2.06595C3528.67 2.85289 3538.74 51.9201 3542 67.1659" stroke="#11009E" stroke-width="3" stroke-linecap="round"/>
    <path d="M2 67.1659C5.26237 51.92 15.3273 2.85288 29.9215 2.06594C45.5967 1.2207 57.4169 8.62192 71.6519 17.3836C84.8597 25.513 95.9815 32.6363 107.312 44.1894C117.643 54.7221 127.016 66.7776 139.179 73.1227C150.925 79.2502 172.762 76.9033 184.4 73.1227C200.39 67.9283 216.294 44.1894 232.807 44.1894C251.659 44.1894 272.28 31.2349 288.954 52.2738C305.938 73.7035 314.406 101.789 336.451 85.462C354.684 71.9571 373.745 58.3273 388.652 38.2326C394.277 30.6487 403.581 19.8105 410.807 15.4689C428.76 4.68148 453.289 9.0445 471.961 12.0649C488.317 14.7109 512.729 18.6716 525.831 35.6796C540.795 55.1047 544.483 74.8247 567.41 74.8247C585.691 74.8247 611.018 40.4122 619.155 17.5963C624.508 2.58629 650.352 -0.380589 658.761 9.72475C675.438 29.7652 691.56 58.7859 712.48 68.8679C735.433 79.9296 764.556 92.9275 781.828 63.1237C795.865 38.9033 802.976 25.0424 827.504 25.0424C842.716 25.0424 851.002 24.3828 863.772 36.3179C888.875 59.7803 974.395 125.973 974.395 44.1894C987.525 18.6984 1022.57 -18.691 1057.71 35.6796C1092.86 90.0502 1113.79 80.4595 1119.86 68.8679C1136.29 38.8211 1175.64 -8.18008 1201.64 44.1894C1234.14 109.651 1237.36 114.384 1252.71 91.626C1268.07 68.8678 1280.93 -18.7831 1306.29 25.0424C1331.64 68.8679 1368.43 108.427 1389.5 91.626C1410.57 74.8247 1416.29 7.38456 1444.5 9.72475C1472.71 12.0649 1565.93 139.063 1628.07 91.626C1690.21 44.1894 1701.64 -13.5218 1772 91.626C1842.36 -13.5218 1853.79 44.1894 1915.93 91.626C1978.07 139.063 2071.29 12.065 2099.5 9.72477C2127.71 7.38457 2133.43 74.8247 2154.5 91.626C2175.57 108.427 2212.36 68.8679 2237.71 25.0424C2263.07 -18.7831 2275.93 68.8679 2291.29 91.626C2306.64 114.384 2309.86 109.651 2342.36 44.1894C2368.36 -8.18007 2407.71 38.8211 2424.14 68.8679C2430.21 80.4595 2451.14 90.0502 2486.29 35.6796C2521.43 -18.6909 2556.47 18.6984 2569.6 44.1894C2569.6 125.973 2655.13 59.7803 2680.23 36.3179C2693 24.3828 2701.28 25.0424 2716.5 25.0424C2741.02 25.0424 2748.14 38.9033 2762.17 63.1238C2779.44 92.9275 2808.57 79.9296 2831.52 68.8679C2852.44 58.7859 2868.56 29.7652 2885.24 9.72477C2893.65 -0.380575 2919.49 2.5863 2924.84 17.5963C2932.98 40.4122 2958.31 74.8247 2976.59 74.8247C2999.52 74.8247 3003.21 55.1047 3018.17 35.6796C3031.27 18.6716 3055.68 14.7109 3072.04 12.065C3090.71 9.04451 3115.24 4.68149 3133.19 15.4689C3140.42 19.8106 3149.72 30.6487 3155.35 38.2326C3170.25 58.3273 3189.32 71.9571 3207.55 85.462C3229.59 101.789 3238.06 73.7035 3255.05 52.2738C3271.72 31.2349 3292.34 44.1894 3311.19 44.1894C3327.71 44.1894 3343.61 67.9283 3359.6 73.1228C3371.24 76.9033 3393.07 79.2502 3404.82 73.1228C3416.98 66.7776 3426.36 54.7222 3436.69 44.1894C3448.02 32.6363 3459.14 25.513 3472.35 17.3836C3486.58 8.62193 3498.4 1.22071 3514.08 2.06595C3528.67 2.85289 3538.74 51.9201 3542 67.1659" stroke="#11009E" stroke-width="3" stroke-linecap="round"/>

</svg>
