<svg width="1280" height="106" viewBox="0 0 1280 106" fill="none" xmlns="http://www.w3.org/2000/svg">
<path d="M-41 67.1659C-37.7376 51.92 -27.6727 2.85288 -13.0785 2.06594C2.5967 1.2207 14.4169 8.62192 28.6519 17.3836C41.8597 25.513 52.9815 32.6363 64.3125 44.1894C74.6425 54.7221 84.0161 66.7776 96.1794 73.1227C107.925 79.2502 129.762 76.9033 141.4 73.1227C157.39 67.9283 173.294 44.1894 189.807 44.1894C208.659 44.1894 229.28 31.2349 245.954 52.2738C262.938 73.7035 271.406 101.789 293.451 85.462C311.684 71.9571 330.745 58.3273 345.652 38.2326C351.277 30.6487 360.581 19.8105 367.807 15.4689C385.76 4.68148 410.289 9.0445 428.961 12.0649C445.317 14.7109 469.729 18.6716 482.831 35.6796C497.795 55.1047 501.483 74.8247 524.41 74.8247C542.691 74.8247 568.018 40.4122 576.155 17.5963C581.508 2.58629 607.352 -0.380589 615.761 9.72475C632.438 29.7652 648.56 58.7859 669.48 68.8679C692.433 79.9296 721.556 92.9275 738.828 63.1237C752.865 38.9033 759.976 25.0424 784.504 25.0424C799.716 25.0424 808.002 24.3828 820.772 36.3179C845.875 59.7803 931.395 125.973 931.395 44.1894C944.525 18.6984 979.571 -18.691 1014.71 35.6796C1049.86 90.0502 1070.79 80.4595 1076.86 68.8679C1093.29 38.8211 1132.64 -8.18008 1158.64 44.1894C1191.14 109.651 1194.36 114.384 1209.71 91.626C1225.07 68.8678 1237.93 -18.7831 1263.29 25.0424C1288.64 68.8679 1325.43 108.427 1346.5 91.626C1367.57 74.8247 1373.29 7.38456 1401.5 9.72475C1429.71 12.0649 1522.93 139.063 1585.07 91.626C1647.21 44.1894 1658.64 -13.5218 1729 91.626C1799.36 -13.5218 1810.79 44.1894 1872.93 91.626C1935.07 139.063 2028.29 12.065 2056.5 9.72477C2084.71 7.38457 2090.43 74.8247 2111.5 91.626C2132.57 108.427 2169.36 68.8679 2194.71 25.0424C2220.07 -18.7831 2232.93 68.8679 2248.29 91.626C2263.64 114.384 2266.86 109.651 2299.36 44.1894C2325.36 -8.18007 2364.71 38.8211 2381.14 68.8679C2387.21 80.4595 2408.14 90.0502 2443.29 35.6796C2478.43 -18.6909 2513.47 18.6984 2526.6 44.1894C2526.6 125.973 2612.13 59.7803 2637.23 36.3179C2650 24.3828 2658.28 25.0424 2673.5 25.0424C2698.02 25.0424 2705.14 38.9033 2719.17 63.1238C2736.44 92.9275 2765.57 79.9296 2788.52 68.8679C2809.44 58.7859 2825.56 29.7652 2842.24 9.72477C2850.65 -0.380575 2876.49 2.5863 2881.84 17.5963C2889.98 40.4122 2915.31 74.8247 2933.59 74.8247C2956.52 74.8247 2960.21 55.1047 2975.17 35.6796C2988.27 18.6716 3012.68 14.7109 3029.04 12.065C3047.71 9.04451 3072.24 4.68149 3090.19 15.4689C3097.42 19.8106 3106.72 30.6487 3112.35 38.2326C3127.25 58.3273 3146.32 71.9571 3164.55 85.462C3186.59 101.789 3195.06 73.7035 3212.05 52.2738C3228.72 31.2349 3249.34 44.1894 3268.19 44.1894C3284.71 44.1894 3300.61 67.9283 3316.6 73.1228C3328.24 76.9033 3350.07 79.2502 3361.82 73.1228C3373.98 66.7776 3383.36 54.7222 3393.69 44.1894C3405.02 32.6363 3416.14 25.513 3429.35 17.3836C3443.58 8.62193 3455.4 1.22071 3471.08 2.06595C3485.67 2.85289 3495.74 51.9201 3499 67.1659" stroke="#11009E" stroke-width="3" stroke-linecap="round"/>
</svg>
