<svg width="67" height="62" viewBox="0 0 67 62" fill="none" xmlns="http://www.w3.org/2000/svg">
<path d="M63.0933 31.81C45.6542 32.7047 28.273 33.4981 10.8339 34.3929C7.07212 34.628 7.09786 28.6967 10.8018 28.5629C28.2409 27.6682 45.6221 26.8748 63.0612 25.9801C66.823 25.7449 66.8551 31.5748 63.0933 31.81Z" fill="#11009E"/>
<path d="M38.213 56.3587C26.265 49.5145 14.4756 42.6277 2.52756 35.7835C0.915339 34.8417 0.530813 32.4548 1.96003 31.1274C9.00536 24.4315 16.7411 18.4092 24.8072 12.9853C27.8952 10.87 30.825 16.0952 27.6941 18.0503C19.9602 23.1276 12.7581 28.921 5.987 35.3717C5.8171 33.7859 5.58933 32.3014 5.41943 30.7156C17.3674 37.5599 29.1569 44.4466 41.1049 51.2909C44.3293 53.1745 41.4375 58.2423 38.213 56.3587Z" fill="#11009E"/>
</svg>
