<svg width="50" height="50" viewBox="0 0 50 50" fill="none" xmlns="http://www.w3.org/2000/svg">
<path d="M32.4896 8.75977H17.5105C12.6771 8.75977 8.75977 12.6778 8.75977 17.5105V32.4896C8.75977 37.323 12.6778 41.2403 17.5112 41.2403H32.4889C37.3223 41.2403 41.2403 37.3223 41.2403 32.4889V17.5105C41.2403 12.6771 37.323 8.75977 32.4896 8.75977Z" stroke="#F3F3F3" stroke-width="1.11111" stroke-miterlimit="10"/>
<path d="M24.9999 32.8402C29.33 32.8402 32.8402 29.33 32.8402 24.9999C32.8402 20.6699 29.33 17.1597 24.9999 17.1597C20.6699 17.1597 17.1597 20.6699 17.1597 24.9999C17.1597 29.33 20.6699 32.8402 24.9999 32.8402Z" stroke="#F3F3F3" stroke-width="1.11111" stroke-miterlimit="10"/>
<path d="M34.5202 17.1595C35.448 17.1595 36.2001 16.4074 36.2001 15.4797C36.2001 14.5519 35.448 13.7998 34.5202 13.7998C33.5924 13.7998 32.8403 14.5519 32.8403 15.4797C32.8403 16.4074 33.5924 17.1595 34.5202 17.1595Z" fill="#F3F3F3"/>
</svg>
