<svg width="124" height="53" viewBox="0 0 124 53" fill="none" xmlns="http://www.w3.org/2000/svg">
<path d="M16.8469 8.9146C16.5544 8.41784 16.2184 7.99969 15.839 7.66015C15.4576 7.31326 15.0338 7.04866 14.5675 6.86634C14.1063 6.67478 13.6071 6.56823 13.07 6.54669C12.54 6.52326 11.9775 6.59124 11.3827 6.75064C10.2708 7.04856 9.3703 7.59711 8.68119 8.39629C7.99915 9.19358 7.57117 10.2025 7.39724 11.423C7.22134 12.6362 7.34415 14.0293 7.76565 15.6024C8.18716 17.1754 8.7758 18.4516 9.53157 19.4309C10.2873 20.4102 11.1644 21.0773 12.1628 21.4322C13.1591 21.7797 14.231 21.7998 15.3782 21.4924C16.4193 21.2134 17.2569 20.7842 17.8909 20.2046C18.5302 19.6157 18.95 18.9163 19.1504 18.1062C19.3579 17.2943 19.3326 16.4068 19.0746 15.4439L20.0478 15.3367L14.4389 16.8396L13.4758 13.2451L22.5796 10.8057L23.3419 13.6505C23.8737 15.6352 23.927 17.4488 23.5017 19.0912C23.0745 20.7262 22.2561 22.1194 21.0466 23.2708C19.835 24.4148 18.3157 25.2316 16.4886 25.7211C14.449 26.2677 12.5322 26.281 10.7382 25.7611C8.94218 25.2339 7.38076 24.2223 6.0539 22.7263C4.73215 21.2211 3.75219 19.2777 3.11402 16.896C2.62358 15.0657 2.44126 13.3655 2.56708 11.7954C2.69801 10.2161 3.0934 8.80235 3.75326 7.55405C4.41312 6.30575 5.28926 5.25555 6.38167 4.40346C7.47408 3.55137 8.7391 2.93272 10.1767 2.54751C11.409 2.21732 12.6065 2.09736 13.7692 2.18761C14.93 2.27052 16.0117 2.54005 17.0144 2.9962C18.0242 3.45046 18.9162 4.07416 19.6905 4.86729C20.4627 5.65308 21.0729 6.58471 21.521 7.66219L16.8469 8.9146Z" fill="#11009E"/>
<path d="M15.1104 48.6675L21.7034 24.0622L37.8725 28.3947L36.7233 32.6838L25.7173 29.7348L24.1463 35.5977L34.0791 38.2592L32.9299 42.5483L22.997 39.8868L20.2736 50.0509L15.1104 48.6675Z" fill="#11009E"/>
<path d="M52.9831 42C50.7264 42 48.7748 41.5077 47.1283 40.5231C45.4915 39.5286 44.2276 38.1461 43.3366 36.3758C42.4455 34.5956 42 32.5319 42 30.1848C42 27.8178 42.4455 25.7491 43.3366 23.9788C44.2276 22.1986 45.4915 20.8162 47.1283 19.8316C48.7748 18.837 50.7264 18.3398 52.9831 18.3398C55.2397 18.3398 57.1864 18.837 58.8232 19.8316C60.4697 20.8162 61.7385 22.1986 62.6295 23.9788C63.5206 25.7491 63.9661 27.8178 63.9661 30.1848C63.9661 32.5319 63.5206 34.5956 62.6295 36.3758C61.7385 38.1461 60.4697 39.5286 58.8232 40.5231C57.1864 41.5077 55.2397 42 52.9831 42ZM53.0121 37.077C54.0387 37.077 54.8959 36.7786 55.5835 36.1819C56.2712 35.5752 56.7893 34.7498 57.138 33.7055C57.4964 32.6612 57.6755 31.4727 57.6755 30.14C57.6755 28.8073 57.4964 27.6189 57.138 26.5746C56.7893 25.5303 56.2712 24.7048 55.5835 24.0982C54.8959 23.4915 54.0387 23.1882 53.0121 23.1882C51.9758 23.1882 51.1041 23.4915 50.3971 24.0982C49.6998 24.7048 49.1719 25.5303 48.8136 26.5746C48.4649 27.6189 48.2906 28.8073 48.2906 30.14C48.2906 31.4727 48.4649 32.6612 48.8136 33.7055C49.1719 34.7498 49.6998 35.5752 50.3971 36.1819C51.1041 36.7786 51.9758 37.077 53.0121 37.077Z" fill="#181818"/>
<path d="M78.0726 42C75.816 42 73.8644 41.5077 72.2179 40.5231C70.5811 39.5286 69.3172 38.1461 68.4261 36.3758C67.5351 34.5956 67.0896 32.5319 67.0896 30.1848C67.0896 27.8178 67.5351 25.7491 68.4261 23.9788C69.3172 22.1986 70.5811 20.8162 72.2179 19.8316C73.8644 18.837 75.816 18.3398 78.0726 18.3398C80.3293 18.3398 82.276 18.837 83.9128 19.8316C85.5593 20.8162 86.8281 22.1986 87.7191 23.9788C88.6102 25.7491 89.0557 27.8178 89.0557 30.1848C89.0557 32.5319 88.6102 34.5956 87.7191 36.3758C86.8281 38.1461 85.5593 39.5286 83.9128 40.5231C82.276 41.5077 80.3293 42 78.0726 42ZM78.1017 37.077C79.1283 37.077 79.9855 36.7786 80.6731 36.1819C81.3608 35.5752 81.8789 34.7498 82.2276 33.7055C82.586 32.6612 82.7651 31.4727 82.7651 30.14C82.7651 28.8073 82.586 27.6189 82.2276 26.5746C81.8789 25.5303 81.3608 24.7048 80.6731 24.0982C79.9855 23.4915 79.1283 23.1882 78.1017 23.1882C77.0654 23.1882 76.1937 23.4915 75.4867 24.0982C74.7893 24.7048 74.2615 25.5303 73.9031 26.5746C73.5545 27.6189 73.3801 28.8073 73.3801 30.14C73.3801 31.4727 73.5545 32.6612 73.9031 33.7055C74.2615 34.7498 74.7893 35.5752 75.4867 36.1819C76.1937 36.7786 77.0654 37.077 78.1017 37.077Z" fill="#181818"/>
<path d="M101.303 41.9254C99.6077 41.9254 98.0726 41.4779 96.6973 40.5828C95.3317 39.6777 94.247 38.35 93.4431 36.5996C92.6489 34.8393 92.2518 32.6811 92.2518 30.1251C92.2518 27.4995 92.6634 25.3165 93.4867 23.576C94.3099 21.8256 95.4044 20.5178 96.77 19.6526C98.1453 18.7774 99.6513 18.3398 101.288 18.3398C102.538 18.3398 103.579 18.5586 104.412 18.9962C105.254 19.4238 105.932 19.9609 106.446 20.6073C106.969 21.2438 107.366 21.8704 107.637 22.487H107.826V11H114V41.5525H107.898V37.8826H107.637C107.346 38.5191 106.935 39.1506 106.402 39.7772C105.879 40.3938 105.196 40.906 104.354 41.3138C103.521 41.7215 102.504 41.9254 101.303 41.9254ZM103.264 36.8681C104.261 36.8681 105.104 36.5897 105.792 36.0327C106.489 35.4658 107.022 34.6752 107.39 33.6607C107.768 32.6463 107.956 31.4578 107.956 30.0953C107.956 28.7328 107.772 27.5492 107.404 26.5448C107.036 25.5403 106.504 24.7645 105.806 24.2175C105.109 23.6705 104.261 23.397 103.264 23.397C102.247 23.397 101.39 23.6805 100.692 24.2474C99.9952 24.8142 99.4673 25.5999 99.109 26.6044C98.7506 27.6089 98.5714 28.7725 98.5714 30.0953C98.5714 31.428 98.7506 32.6065 99.109 33.6309C99.477 34.6453 100.005 35.441 100.692 36.0178C101.39 36.5847 102.247 36.8681 103.264 36.8681Z" fill="#181818"/>
</svg>
