<svg width="38" height="38" viewBox="0 0 38 38" fill="none" xmlns="http://www.w3.org/2000/svg">
<path d="M36.1211 26.6661L26.8985 22.5391C26.5409 22.3844 26.1505 22.3212 25.7624 22.3553C25.3743 22.3894 25.0009 22.5197 24.6758 22.7344C24.6498 22.7509 24.625 22.7692 24.6016 22.7891L19.7578 26.918C19.65 26.9838 19.5277 27.0219 19.4016 27.0291C19.2756 27.0362 19.1497 27.0122 19.0352 26.959C15.8633 25.4278 12.5801 22.17 11.0489 19.0352C10.9947 18.9215 10.9695 18.7962 10.9757 18.6704C10.9818 18.5447 11.019 18.4224 11.084 18.3145L15.2246 13.3907C15.2442 13.3672 15.2617 13.3418 15.2793 13.3165C15.4934 12.9918 15.6233 12.6191 15.6574 12.2318C15.6915 11.8444 15.6287 11.4547 15.4746 11.0977L11.3399 1.89067C11.1403 1.42435 10.7947 1.03538 10.3552 0.782165C9.91571 0.528948 9.4059 0.425155 8.90236 0.486372C6.44449 0.810435 4.18863 2.01814 2.55613 3.8839C0.923631 5.74967 0.0261329 8.14591 0.0312719 10.625C0.0312719 25.7032 12.2969 37.9688 27.375 37.9688C29.8542 37.9739 32.2504 37.0764 34.1162 35.4439C35.9819 33.8114 37.1896 31.5556 37.5137 29.0977C37.5745 28.5965 37.4717 28.089 37.2208 27.6508C36.9699 27.2127 36.5842 26.8673 36.1211 26.6661ZM35.9688 28.9024C35.693 30.9839 34.6685 32.8937 33.0868 34.2748C31.5052 35.6558 29.4747 36.4136 27.375 36.4063C13.1602 36.4063 1.59377 24.8399 1.59377 10.625C1.5865 8.52533 2.34422 6.49485 3.72527 4.91322C5.10632 3.33159 7.01614 2.3071 9.09768 2.03129C9.1289 2.02935 9.16021 2.02935 9.19143 2.03129C9.34556 2.03261 9.49585 2.07948 9.6234 2.16602C9.75095 2.25256 9.85005 2.37489 9.90823 2.51762L14.0313 11.7247C14.0794 11.8372 14.1004 11.9594 14.0926 12.0816C14.0848 12.2037 14.0484 12.3223 13.9864 12.4278L9.84768 17.3497C9.82815 17.375 9.80862 17.3985 9.79104 17.4258C9.57055 17.763 9.44069 18.1513 9.41401 18.5533C9.38732 18.9553 9.46471 19.3574 9.63869 19.7207C11.336 23.1954 14.836 26.67 18.3496 28.3672C18.7155 28.5401 19.1198 28.6153 19.5234 28.5855C19.9269 28.5557 20.3159 28.422 20.6524 28.1973L20.7246 28.1426L25.5742 24.0176C25.678 23.9542 25.7953 23.9164 25.9165 23.9072C26.0377 23.8981 26.1594 23.9178 26.2715 23.9649L35.4922 28.0977C35.6478 28.1625 35.7783 28.2758 35.8642 28.4209C35.9501 28.5659 35.9868 28.7348 35.9688 28.9024Z" fill="#F3F3F3"/>
</svg>
