<svg width="50" height="50" viewBox="0 0 50 50" fill="none" xmlns="http://www.w3.org/2000/svg">
<path d="M42.5313 8.8335C43.7188 8.8335 44.6147 9.87516 44.1355 11.8127L38.323 39.2085C37.9167 41.1564 36.7397 41.6252 35.1147 40.7189L21.2501 30.4793C21.1963 30.4408 21.1525 30.3899 21.1223 30.3311C21.0921 30.2722 21.0763 30.207 21.0763 30.1408C21.0763 30.0746 21.0921 30.0094 21.1223 29.9505C21.1525 29.8916 21.1963 29.8408 21.2501 29.8022L37.2605 15.3439C37.9897 14.6981 37.1042 14.3856 36.1459 14.9689L16.0522 27.646C15.9912 27.6857 15.922 27.7111 15.8498 27.7201C15.7776 27.7291 15.7043 27.7216 15.6355 27.6981L7.10424 25.0002C5.20841 24.4481 5.20841 23.146 7.53132 22.2189L41.6667 9.05225C41.9375 8.92237 42.2314 8.84799 42.5313 8.8335Z" stroke="#F3F3F3" stroke-width="0.833333" stroke-linecap="round" stroke-linejoin="round"/>
</svg>
