<svg width="50" height="50" viewBox="0 0 50 50" fill="none" xmlns="http://www.w3.org/2000/svg">
<path d="M25.0001 2.604C21.1097 2.60818 17.2874 3.62475 13.909 5.55376C10.5306 7.48277 7.71231 10.2578 5.73133 13.606C3.75035 16.9543 2.67484 20.7604 2.61056 24.6502C2.54627 28.54 3.49541 32.3796 5.36467 35.7915L2.60425 47.3957L14.2084 44.6353C17.2014 46.2771 20.5301 47.213 23.9401 47.3715C27.3502 47.53 30.7513 46.9068 33.8837 45.5496C37.016 44.1925 39.7967 42.1372 42.0131 39.5408C44.2295 36.9445 45.8231 33.8759 46.6721 30.5694C47.521 27.2629 47.6029 23.8061 46.9114 20.4631C46.2198 17.1202 44.7733 13.9796 42.6822 11.2812C40.5911 8.58292 37.9109 6.39834 34.8463 4.89443C31.7817 3.39052 28.4138 2.60709 25.0001 2.604ZM13.8022 12.7811H19.9063C20.1826 12.7811 20.4476 12.8908 20.6429 13.0862C20.8383 13.2815 20.948 13.5465 20.948 13.8228C20.9138 15.2119 21.1472 16.5947 21.6355 17.8957C21.8458 18.3312 21.892 18.8279 21.7657 19.2947C21.6395 19.7615 21.3491 20.1672 20.948 20.4373L18.8126 22.5207C19.7594 24.3697 20.9974 26.0544 22.4792 27.5103C23.9233 29.0162 25.6012 30.279 27.448 31.2498L29.5313 29.1144C30.573 28.0728 31.0522 28.0728 32.073 28.4269C33.374 28.9152 34.7568 29.1486 36.1459 29.1144C36.4181 29.1271 36.6757 29.2409 36.8684 29.4336C37.0611 29.6263 37.1749 29.8839 37.1876 30.1561V36.2603C37.1749 36.5324 37.0611 36.7901 36.8684 36.9828C36.6757 37.1754 36.4181 37.2892 36.1459 37.3019C30.0184 37.035 24.2101 34.4948 19.8542 30.1769C15.5296 25.8256 12.9882 20.0146 12.7292 13.8853C12.7317 13.5985 12.8446 13.3238 13.0444 13.1182C13.2442 12.9125 13.5156 12.7918 13.8022 12.7811Z" stroke="#F3F3F3" stroke-width="0.833333" stroke-linecap="round" stroke-linejoin="round"/>
</svg>
